<svg id="svg" version="1.1" xmlns="http://www.w3.org/2000/svg" xmlns:xlink="http://www.w3.org/1999/xlink" width="400" height="400" viewBox="0, 0, 400,400"><g id="svgg"><path id="path0" d="M94.083 66.030 C 93.442 66.113,92.092 66.287,91.083 66.416 C 87.992 66.812,82.734 67.960,81.583 68.490 C 81.400 68.574,80.950 68.729,80.583 68.833 C 80.217 68.938,79.767 69.092,79.583 69.175 C 79.400 69.259,78.612 69.555,77.833 69.835 C 76.120 70.449,69.376 73.762,69.000 74.175 C 68.954 74.225,68.550 74.478,68.102 74.737 C 67.355 75.169,64.752 76.942,64.283 77.339 C 64.173 77.432,63.446 78.002,62.667 78.607 C 58.830 81.583,54.792 85.806,51.536 90.250 C 50.143 92.152,48.008 95.673,46.788 98.083 C 46.264 99.118,45.965 99.759,45.061 101.788 C 44.223 103.669,42.709 108.228,42.239 110.285 C 41.123 115.178,40.673 118.598,40.555 123.083 C 40.320 132.009,41.938 140.280,45.509 148.417 C 46.296 150.211,46.635 150.893,47.747 152.917 C 49.165 155.497,51.824 159.565,52.750 160.569 C 52.842 160.669,53.365 161.310,53.912 161.995 C 56.103 164.736,59.995 168.600,62.282 170.305 C 62.569 170.519,63.054 170.918,63.360 171.192 C 63.666 171.465,64.929 172.369,66.167 173.199 C 67.404 174.029,68.441 174.730,68.472 174.756 C 68.502 174.783,68.342 175.505,68.116 176.361 C 67.009 180.559,66.228 184.651,65.752 188.750 C 65.614 189.942,65.428 191.404,65.340 192.000 C 64.702 196.306,64.451 240.609,65.041 244.833 C 65.646 249.175,66.511 253.305,67.414 256.167 C 68.038 258.145,69.056 261.092,69.170 261.250 C 69.236 261.342,69.383 261.705,69.497 262.058 C 69.610 262.410,69.807 262.898,69.934 263.141 C 70.061 263.384,70.165 263.649,70.166 263.729 C 70.173 264.767,75.676 274.436,77.956 277.417 C 78.026 277.508,78.306 277.921,78.578 278.333 C 78.850 278.746,79.171 279.196,79.292 279.333 C 79.413 279.471,79.978 280.183,80.548 280.917 C 81.117 281.650,81.809 282.508,82.084 282.824 C 84.926 286.091,88.237 289.493,90.933 291.917 C 93.699 294.404,94.430 295.013,97.089 297.052 C 98.002 297.752,98.825 298.383,98.917 298.454 C 99.736 299.088,100.859 299.883,103.566 301.743 C 105.197 302.864,110.293 306.017,111.253 306.500 C 111.526 306.637,111.787 306.787,111.833 306.833 C 111.879 306.879,112.142 307.030,112.417 307.167 C 112.692 307.304,113.442 307.718,114.083 308.087 C 115.169 308.710,120.863 311.564,122.750 312.430 C 124.491 313.230,125.859 313.833,125.930 313.833 C 125.971 313.833,126.322 313.979,126.710 314.157 C 128.212 314.844,131.505 316.167,131.714 316.167 C 131.835 316.167,132.005 316.230,132.092 316.307 C 132.179 316.385,132.737 316.621,133.333 316.832 C 133.929 317.043,134.642 317.308,134.917 317.422 C 135.192 317.536,136.129 317.870,137.000 318.164 C 137.871 318.458,138.733 318.761,138.917 318.838 C 139.100 318.914,139.550 319.062,139.917 319.167 C 140.283 319.271,140.733 319.421,140.917 319.499 C 141.100 319.578,141.925 319.840,142.750 320.081 C 143.575 320.323,144.438 320.590,144.667 320.675 C 145.578 321.012,152.941 322.985,155.333 323.533 C 156.112 323.712,157.387 324.004,158.167 324.183 C 163.795 325.473,176.128 327.489,179.458 327.664 C 179.481 327.666,179.500 319.042,179.500 308.500 C 179.500 291.574,179.471 289.333,179.250 289.333 C 179.029 289.333,179.000 291.546,179.000 308.250 C 179.000 318.654,178.979 327.167,178.953 327.167 C 178.703 327.167,174.261 326.588,172.500 326.326 C 116.692 318.027,75.898 289.472,66.922 252.426 C 65.114 244.966,65.109 244.860,65.230 219.833 C 65.369 191.286,65.682 187.356,68.721 175.973 L 69.104 174.539 66.844 173.033 C 39.707 154.946,32.806 117.911,51.576 91.099 C 65.169 71.682,89.707 62.284,112.063 67.931 C 126.569 71.595,140.893 81.897,149.643 94.958 C 150.831 96.732,150.651 96.676,152.686 95.916 C 175.718 87.315,220.640 86.699,244.247 94.662 L 247.670 95.816 247.953 95.366 C 254.262 85.328,266.192 75.390,277.792 70.511 C 311.206 56.456,350.062 79.183,355.562 116.000 C 358.740 137.272,349.729 158.943,332.454 171.578 C 331.833 172.032,331.359 172.493,331.401 172.602 C 332.655 175.870,334.594 185.588,335.255 191.917 C 336.166 200.639,335.715 244.237,334.662 249.187 C 329.413 273.874,311.075 294.799,281.667 309.657 C 253.963 323.654,220.141 330.168,186.958 327.897 L 185.333 327.786 185.333 309.296 L 185.333 290.807 185.792 290.900 C 221.937 298.210,257.167 275.390,257.167 244.667 C 257.167 203.555,197.927 181.926,160.526 209.383 C 129.506 232.155,137.754 274.355,175.917 288.120 C 179.026 289.242,179.056 289.250,178.965 288.976 C 178.865 288.675,178.449 288.484,176.083 287.656 C 174.983 287.270,173.671 286.772,173.167 286.548 C 172.662 286.325,171.987 286.026,171.667 285.884 C 171.169 285.664,168.985 284.583,167.250 283.698 C 166.975 283.558,166.712 283.394,166.667 283.334 C 166.621 283.275,166.471 283.177,166.333 283.117 C 166.196 283.057,165.708 282.779,165.250 282.500 C 164.792 282.220,164.248 281.907,164.042 281.803 C 163.835 281.698,163.667 281.550,163.667 281.473 C 163.667 281.396,163.589 281.333,163.494 281.333 C 163.341 281.333,161.676 280.163,159.500 278.525 C 156.441 276.224,152.033 271.601,149.538 268.079 C 148.626 266.792,148.333 266.335,148.333 266.195 C 148.333 266.103,148.276 266.003,148.205 265.972 C 147.897 265.839,146.476 263.160,144.992 259.917 C 141.734 252.794,141.052 242.358,143.313 234.200 C 144.717 229.135,148.326 222.241,151.415 218.725 C 151.508 218.620,151.956 218.095,152.410 217.558 C 154.174 215.479,157.558 212.267,159.784 210.559 C 160.315 210.151,160.862 209.726,161.000 209.616 C 161.396 209.296,165.031 206.905,165.583 206.601 C 165.858 206.449,166.608 206.026,167.250 205.660 C 169.474 204.392,172.196 203.125,174.917 202.091 C 175.833 201.743,176.808 201.363,177.083 201.246 C 177.358 201.130,177.843 200.980,178.161 200.913 C 178.479 200.846,178.854 200.727,178.995 200.648 C 180.055 200.057,187.054 198.580,191.750 197.956 C 193.726 197.694,205.094 197.695,206.917 197.957 C 214.485 199.048,220.787 200.634,224.917 202.489 C 225.100 202.572,225.813 202.885,226.500 203.186 C 227.824 203.766,231.021 205.387,232.000 205.974 C 232.321 206.167,232.808 206.447,233.083 206.597 C 233.542 206.848,237.196 209.237,237.583 209.539 C 241.059 212.253,241.376 212.529,243.750 214.910 C 245.828 216.995,246.801 218.070,247.749 219.333 C 252.365 225.479,254.290 229.664,256.165 237.624 C 256.956 240.981,256.905 248.161,256.062 252.167 C 255.598 254.373,254.563 257.959,254.309 258.242 C 254.231 258.329,254.167 258.516,254.167 258.659 C 254.167 259.446,250.173 267.032,249.337 267.833 C 249.289 267.879,248.990 268.292,248.673 268.750 C 248.355 269.208,248.018 269.667,247.923 269.769 C 247.828 269.870,247.525 270.244,247.250 270.598 C 245.129 273.331,240.253 277.946,237.668 279.667 C 237.462 279.804,237.208 279.996,237.105 280.092 C 236.770 280.404,233.619 282.428,232.333 283.156 C 231.646 283.545,230.971 283.928,230.833 284.007 C 230.324 284.299,227.556 285.645,226.750 285.993 C 226.292 286.190,225.767 286.419,225.583 286.502 C 223.979 287.224,220.841 288.325,218.250 289.076 C 217.425 289.315,216.525 289.577,216.250 289.659 C 215.975 289.741,215.300 289.894,214.750 289.998 C 214.200 290.103,213.525 290.255,213.250 290.337 C 212.975 290.419,211.963 290.605,211.000 290.751 C 210.037 290.896,208.800 291.084,208.250 291.168 C 203.841 291.837,195.402 291.838,190.538 291.169 C 188.842 290.936,186.131 290.512,185.708 290.414 C 185.446 290.353,185.333 290.403,185.333 290.580 C 185.333 290.719,185.221 290.833,185.083 290.833 C 184.863 290.833,184.833 293.015,184.833 309.470 L 184.833 328.107 186.542 328.301 C 197.508 329.547,219.283 328.500,232.333 326.099 C 233.021 325.973,234.446 325.714,235.500 325.523 C 238.952 324.900,244.226 323.733,247.167 322.942 C 249.198 322.396,250.801 321.976,251.750 321.742 C 252.300 321.606,252.938 321.428,253.167 321.346 C 253.396 321.264,254.258 320.996,255.083 320.749 C 256.832 320.226,262.429 318.390,262.917 318.179 C 263.100 318.100,264.262 317.678,265.500 317.243 C 266.737 316.807,267.825 316.397,267.917 316.330 C 268.008 316.264,268.372 316.117,268.724 316.003 C 269.077 315.890,269.565 315.693,269.808 315.566 C 270.051 315.439,270.314 315.335,270.391 315.334 C 270.469 315.334,270.769 315.226,271.058 315.094 C 271.347 314.962,272.071 314.656,272.667 314.413 C 273.262 314.170,274.275 313.725,274.917 313.423 C 275.558 313.122,276.383 312.743,276.750 312.583 C 277.893 312.081,284.687 308.711,286.000 307.993 C 289.761 305.937,296.795 301.631,297.167 301.156 C 297.212 301.098,297.438 300.952,297.667 300.832 C 298.672 300.305,305.100 295.433,307.229 293.583 C 312.281 289.195,316.044 285.424,318.931 281.856 C 319.107 281.640,319.348 281.360,319.468 281.234 C 319.761 280.925,321.686 278.462,322.000 277.994 C 322.137 277.788,322.411 277.423,322.608 277.181 C 324.046 275.417,327.694 269.408,329.192 266.333 C 330.466 263.718,331.167 262.216,331.167 262.095 C 331.167 262.033,331.307 261.667,331.479 261.283 C 332.034 260.043,332.987 257.338,333.751 254.833 C 334.200 253.364,334.873 250.562,335.333 248.250 C 336.000 244.899,336.454 196.411,335.852 192.750 C 335.747 192.108,335.549 190.608,335.412 189.417 C 335.052 186.274,334.761 184.564,333.769 179.750 C 333.445 178.181,332.201 173.343,332.001 172.875 C 331.908 172.657,331.904 172.500,331.992 172.500 C 332.075 172.500,332.243 172.406,332.366 172.292 C 332.489 172.177,333.225 171.600,334.003 171.009 C 335.428 169.925,335.811 169.602,337.469 168.083 C 340.308 165.482,343.709 161.705,345.295 159.392 C 345.411 159.222,345.936 158.469,346.462 157.718 C 348.515 154.784,351.995 148.397,352.001 147.551 C 352.002 147.477,352.106 147.218,352.232 146.975 C 353.754 144.058,355.674 136.723,356.242 131.652 C 356.752 127.111,356.718 120.373,356.169 116.750 C 355.441 111.947,354.025 106.373,352.904 103.891 C 352.773 103.603,352.667 103.314,352.667 103.250 C 352.667 103.186,352.560 102.897,352.429 102.609 C 352.299 102.320,351.955 101.521,351.666 100.833 C 351.376 100.146,350.932 99.171,350.679 98.667 C 349.793 96.902,349.266 95.916,349.166 95.833 C 349.110 95.787,348.966 95.506,348.845 95.208 C 348.725 94.910,348.560 94.667,348.480 94.667 C 348.399 94.667,348.333 94.584,348.333 94.483 C 348.333 94.336,345.797 90.382,345.296 89.750 C 345.223 89.658,344.783 89.096,344.316 88.500 C 342.676 86.404,342.071 85.728,339.671 83.315 C 336.176 79.801,333.047 77.233,329.750 75.174 C 329.108 74.773,328.396 74.327,328.167 74.184 C 327.938 74.040,327.600 73.839,327.417 73.737 C 327.233 73.636,326.783 73.381,326.417 73.172 C 317.862 68.295,307.254 65.649,297.167 65.877 C 293.782 65.954,290.448 66.267,288.583 66.685 C 285.659 67.340,282.553 68.163,281.750 68.495 C 281.567 68.570,280.817 68.838,280.083 69.090 C 279.350 69.341,278.354 69.724,277.870 69.940 C 277.386 70.156,276.948 70.333,276.895 70.333 C 276.817 70.333,275.088 71.186,271.033 73.227 C 270.694 73.398,270.392 73.604,270.361 73.685 C 270.331 73.767,270.238 73.833,270.154 73.833 C 270.071 73.833,269.477 74.171,268.833 74.583 C 268.190 74.996,267.595 75.333,267.512 75.333 C 267.429 75.333,267.336 75.390,267.306 75.458 C 267.275 75.527,266.762 75.914,266.167 76.319 C 264.966 77.133,262.034 79.318,261.241 79.987 C 260.961 80.223,260.286 80.792,259.741 81.250 C 257.829 82.858,253.210 87.582,251.833 89.338 C 250.910 90.516,250.766 90.691,250.486 90.979 C 250.172 91.301,248.605 93.455,247.954 94.458 C 247.702 94.848,247.467 95.167,247.432 95.167 C 247.397 95.167,245.992 94.709,244.309 94.149 C 242.627 93.589,240.650 92.984,239.917 92.805 C 237.122 92.122,236.534 91.988,234.833 91.649 C 232.759 91.234,230.085 90.777,227.667 90.424 C 226.704 90.283,225.429 90.088,224.833 89.990 C 215.089 88.390,193.014 88.042,182.917 89.329 C 182.183 89.423,180.496 89.615,179.167 89.757 C 175.092 90.190,170.997 90.823,167.175 91.609 C 162.818 92.506,160.938 92.955,156.583 94.141 C 155.067 94.554,152.130 95.515,151.917 95.668 C 151.368 96.061,150.897 95.986,150.586 95.453 C 150.149 94.706,147.739 91.363,147.043 90.541 C 146.882 90.350,146.609 90.020,146.436 89.806 C 143.778 86.517,140.913 83.623,137.309 80.586 C 136.652 80.032,134.391 78.266,133.998 78.000 C 133.795 77.862,133.318 77.522,132.939 77.244 C 132.560 76.966,131.688 76.371,131.000 75.923 C 130.313 75.475,129.547 74.971,129.298 74.804 C 129.050 74.637,128.793 74.500,128.728 74.500 C 128.663 74.500,128.491 74.395,128.346 74.267 C 127.831 73.810,123.976 71.818,121.583 70.772 C 118.883 69.592,118.863 69.584,117.417 69.089 C 116.683 68.838,115.933 68.570,115.750 68.495 C 115.344 68.327,113.360 67.744,112.333 67.491 C 109.662 66.833,107.916 66.530,103.750 66.002 C 102.150 65.799,95.722 65.818,94.083 66.030 M102.098 95.671 C 89.262 97.141,79.775 105.285,76.582 117.572 C 74.282 126.424,75.971 140.162,79.738 143.249 C 84.097 146.821,88.148 144.526,93.126 135.667 C 93.770 134.521,95.030 132.274,95.927 130.675 C 100.005 123.397,101.866 121.425,113.000 112.584 C 121.114 106.141,121.956 104.420,118.737 100.862 C 115.156 96.906,108.755 94.909,102.098 95.671 M109.833 96.487 C 110.704 96.677,111.547 96.908,111.706 97.000 C 111.865 97.092,112.090 97.168,112.206 97.170 C 112.978 97.181,115.716 98.777,117.296 100.136 C 121.066 103.379,120.811 105.461,116.167 109.344 C 115.571 109.842,115.046 110.292,115.000 110.344 C 114.954 110.396,113.229 111.777,111.167 113.414 C 109.104 115.051,107.379 116.434,107.333 116.487 C 107.287 116.540,106.950 116.838,106.583 117.147 C 103.494 119.760,100.839 122.366,99.519 124.083 C 98.955 124.817,98.436 125.492,98.366 125.583 C 98.119 125.904,96.702 128.265,95.764 129.917 C 95.243 130.833,94.748 131.696,94.663 131.833 C 94.578 131.971,94.379 132.346,94.220 132.667 C 94.061 132.987,93.323 134.300,92.579 135.583 C 90.754 138.732,90.768 138.709,90.620 138.908 C 90.549 139.005,90.190 139.496,89.823 140.000 C 88.274 142.128,86.328 143.808,84.993 144.170 C 82.522 144.838,79.099 142.940,78.313 140.466 C 78.218 140.164,78.076 139.767,77.999 139.583 C 77.567 138.553,76.752 135.276,76.507 133.583 C 76.401 132.850,76.246 131.800,76.162 131.250 C 75.655 127.912,76.003 121.135,76.822 118.428 C 79.697 108.917,83.301 103.974,90.301 99.939 C 90.878 99.606,91.383 99.333,91.421 99.333 C 91.460 99.333,92.020 99.076,92.665 98.762 C 93.311 98.448,94.119 98.105,94.461 98.000 C 94.803 97.896,95.233 97.743,95.417 97.660 C 96.453 97.195,99.489 96.500,102.000 96.153 C 103.687 95.921,108.106 96.108,109.833 96.487 M293.553 98.841 C 283.556 99.513,278.433 102.275,278.421 107.000 C 278.411 110.627,280.841 112.795,291.500 118.667 C 299.630 123.146,301.134 124.521,309.990 135.583 C 317.101 144.466,318.493 145.225,322.107 142.194 C 326.031 138.902,328.160 132.521,327.510 126.000 C 325.950 110.347,314.995 99.939,298.917 98.832 C 296.374 98.657,296.284 98.657,293.553 98.841 M299.667 99.333 C 301.400 99.507,304.239 99.956,304.917 100.164 C 307.736 101.025,308.956 101.412,309.167 101.512 C 314.786 104.163,318.185 106.609,320.585 109.731 C 320.859 110.088,321.160 110.463,321.254 110.565 C 321.454 110.783,322.668 112.602,322.933 113.083 C 323.035 113.267,323.324 113.792,323.576 114.250 C 326.911 120.309,328.010 128.738,326.243 134.703 C 325.018 138.841,321.254 143.333,319.013 143.333 C 317.496 143.333,315.674 141.816,312.563 137.963 C 311.695 136.888,310.895 135.913,310.784 135.796 C 310.674 135.679,310.264 135.154,309.873 134.629 C 309.482 134.105,308.708 133.130,308.153 132.463 C 307.598 131.796,306.905 130.956,306.613 130.597 C 306.088 129.949,305.518 129.296,303.924 127.509 C 301.407 124.689,297.385 121.167,296.682 121.167 C 296.582 121.167,296.500 121.110,296.500 121.042 C 296.500 120.973,296.012 120.654,295.417 120.333 C 294.821 120.013,294.334 119.694,294.334 119.625 C 294.333 119.556,294.264 119.500,294.179 119.500 C 294.094 119.500,293.232 119.050,292.264 118.500 C 291.295 117.950,290.472 117.500,290.435 117.500 C 290.278 117.500,285.578 114.755,285.528 114.634 C 285.497 114.560,285.398 114.500,285.308 114.500 C 285.001 114.500,281.867 112.198,280.997 111.333 C 278.671 109.023,278.162 106.186,279.695 104.083 C 281.119 102.131,282.244 101.534,286.616 100.410 C 290.588 99.390,295.884 98.952,299.667 99.333 M124.192 179.670 C 114.542 181.688,110.933 193.764,117.892 200.753 C 125.673 208.568,138.756 203.562,139.288 192.566 C 139.682 184.416,132.173 178.001,124.192 179.670 M269.417 179.665 C 259.434 181.860,256.015 194.294,263.491 201.215 C 272.393 209.457,286.759 201.262,284.258 189.370 C 282.868 182.764,275.937 178.231,269.417 179.665 M128.101 179.991 C 134.287 180.703,138.833 185.789,138.833 192.000 C 138.833 195.796,137.411 198.721,134.194 201.540 C 131.756 203.677,126.976 204.649,123.667 203.679 C 122.499 203.337,121.023 202.714,120.833 202.482 C 120.787 202.426,120.497 202.250,120.188 202.092 C 114.987 199.426,113.046 190.025,116.711 185.250 C 119.099 182.140,121.952 180.397,125.292 180.008 C 125.911 179.936,126.492 179.868,126.583 179.857 C 126.675 179.845,127.358 179.906,128.101 179.991 M273.306 179.996 C 282.119 181.009,286.874 190.684,282.276 198.245 C 278.223 204.908,269.032 206.048,263.593 200.562 C 261.923 198.878,261.946 198.908,261.326 197.634 C 261.044 197.056,260.744 196.455,260.660 196.299 C 259.709 194.537,259.702 189.456,260.648 187.720 C 260.739 187.553,261.044 186.944,261.326 186.366 C 261.943 185.099,261.934 185.111,263.500 183.505 C 265.375 181.582,267.865 180.327,270.417 180.018 C 271.058 179.940,271.658 179.867,271.750 179.856 C 271.842 179.845,272.542 179.908,273.306 179.996 " stroke="none" fill="#f7f7f7" fill-rule="evenodd"></path><path id="path1" d="M95.250 66.506 C 70.799 68.001,49.418 85.638,43.028 109.583 C 36.510 134.003,46.731 160.319,67.917 173.665 C 68.558 174.069,69.112 174.419,69.146 174.443 C 69.181 174.467,68.901 175.708,68.523 177.202 C 65.581 188.854,65.333 192.278,65.333 221.244 C 65.333 245.006,65.305 244.265,66.435 249.825 C 71.448 274.492,90.002 295.690,119.167 310.071 C 121.294 311.120,122.212 311.549,125.083 312.841 C 133.342 316.555,144.831 320.434,154.417 322.745 C 161.427 324.434,168.133 325.677,175.583 326.666 C 176.958 326.848,178.252 326.998,178.458 326.999 L 178.833 327.000 178.833 308.112 L 178.833 289.224 177.208 288.675 C 136.570 274.921,128.760 230.345,163.000 207.582 C 200.716 182.508,257.268 204.761,257.245 244.667 C 257.231 268.853,236.868 287.932,206.821 291.911 C 201.792 292.577,189.644 292.045,186.001 291.000 C 185.681 290.908,185.400 290.833,185.376 290.833 C 185.353 290.833,185.333 299.115,185.333 309.238 L 185.333 327.643 186.208 327.737 C 195.710 328.759,212.522 328.321,224.333 326.743 C 280.381 319.255,323.273 290.532,333.467 253.660 C 335.126 247.662,335.177 246.930,335.500 224.583 C 335.961 192.739,335.665 188.898,331.544 173.286 C 331.404 172.756,331.318 172.299,331.353 172.272 C 331.388 172.245,332.054 171.746,332.833 171.163 C 366.381 146.061,362.979 94.447,326.418 73.849 C 303.208 60.773,276.464 65.096,256.499 85.153 C 253.262 88.405,249.013 93.553,247.849 95.633 C 247.714 95.874,247.324 95.780,244.390 94.800 C 238.986 92.994,235.766 92.259,227.413 90.925 C 213.458 88.697,193.872 88.495,178.000 90.416 C 169.469 91.448,158.887 93.781,152.701 95.993 C 151.665 96.364,150.790 96.667,150.756 96.667 C 150.721 96.667,150.126 95.823,149.433 94.792 C 137.030 76.330,115.805 65.250,95.250 66.506 M108.729 95.750 C 113.808 96.515,118.506 99.345,120.097 102.596 C 121.420 105.300,120.322 106.824,112.583 113.020 C 101.001 122.294,99.853 123.575,94.751 132.917 C 89.572 142.398,87.100 145.000,83.462 144.799 C 80.178 144.618,78.266 142.700,77.011 138.326 C 72.667 123.191,77.153 107.909,88.068 100.657 C 94.161 96.609,102.029 94.740,108.729 95.750 M300.716 98.916 C 311.773 100.209,320.277 105.949,324.562 115.012 C 329.259 124.946,328.603 135.804,322.961 141.499 C 319.205 145.290,317.129 144.634,311.804 137.973 C 301.247 124.768,299.971 123.524,292.917 119.554 C 291.450 118.729,289.200 117.467,287.917 116.750 C 282.689 113.830,279.707 111.388,278.710 109.210 C 277.478 106.519,279.061 102.706,282.000 101.288 C 286.109 99.306,294.718 98.214,300.716 98.916 M129.299 179.598 C 139.633 181.727,142.975 194.750,134.956 201.638 C 128.675 207.032,118.876 204.873,115.340 197.316 C 110.981 188.001,119.235 177.525,129.299 179.598 M275.250 179.754 C 284.635 182.336,287.766 194.070,280.905 200.948 C 274.833 207.035,264.481 205.315,260.661 197.583 C 255.887 187.923,264.902 176.906,275.250 179.754 M205.088 223.018 C 204.357 223.095,203.307 223.266,202.755 223.399 C 202.202 223.533,201.487 223.689,201.167 223.747 C 200.846 223.805,200.433 223.915,200.250 223.990 C 200.067 224.066,199.279 224.332,198.500 224.582 C 192.692 226.445,186.311 230.864,182.614 235.583 C 182.183 236.133,181.758 236.672,181.669 236.781 C 181.277 237.259,179.780 240.246,179.374 241.360 L 178.927 242.583 178.874 265.333 C 178.814 290.549,178.767 289.018,179.618 289.422 C 180.701 289.936,184.673 290.842,185.023 290.655 C 185.323 290.494,185.333 289.869,185.333 271.928 L 185.333 253.368 185.958 253.529 C 187.665 253.967,188.442 254.027,191.417 253.956 C 194.853 253.873,197.636 253.385,199.750 252.497 C 199.933 252.420,200.383 252.267,200.750 252.157 C 201.117 252.047,201.492 251.901,201.583 251.832 C 201.675 251.764,201.938 251.650,202.167 251.579 C 202.696 251.417,205.389 250.156,205.500 250.019 C 205.546 249.963,206.089 249.654,206.708 249.333 C 207.327 249.012,207.833 248.706,207.833 248.652 C 207.833 248.598,208.025 248.466,208.258 248.360 C 211.269 246.988,216.803 241.096,218.491 237.465 C 220.023 234.169,220.306 229.073,219.016 228.000 C 218.961 227.954,218.804 227.698,218.666 227.431 C 216.970 224.132,211.473 222.345,205.088 223.018 " stroke="none" fill="#141c2c" fill-rule="evenodd"></path><path id="path2" d="M95.208 66.448 C 95.369 66.490,95.631 66.490,95.792 66.448 C 95.952 66.406,95.821 66.372,95.500 66.372 C 95.179 66.372,95.048 66.406,95.208 66.448 M294.208 66.448 C 294.369 66.490,294.631 66.490,294.792 66.448 C 294.952 66.406,294.821 66.372,294.500 66.372 C 294.179 66.372,294.048 66.406,294.208 66.448 M301.375 66.448 C 301.535 66.490,301.798 66.490,301.958 66.448 C 302.119 66.406,301.987 66.372,301.667 66.372 C 301.346 66.372,301.215 66.406,301.375 66.448 M256.413 85.042 L 255.083 86.417 256.458 85.087 C 257.215 84.356,257.833 83.737,257.833 83.712 C 257.833 83.591,257.647 83.765,256.413 85.042 M194.208 89.119 C 194.460 89.158,194.873 89.158,195.125 89.119 C 195.377 89.081,195.171 89.050,194.667 89.050 C 194.162 89.050,193.956 89.081,194.208 89.119 M206.708 89.119 C 206.960 89.158,207.373 89.158,207.625 89.119 C 207.877 89.081,207.671 89.050,207.167 89.050 C 206.662 89.050,206.456 89.081,206.708 89.119 M101.824 122.125 L 101.250 122.750 101.875 122.176 C 102.457 121.641,102.577 121.500,102.449 121.500 C 102.422 121.500,102.140 121.781,101.824 122.125 M301.500 125.750 C 301.811 126.071,302.103 126.333,302.149 126.333 C 302.195 126.333,301.978 126.071,301.667 125.750 C 301.356 125.429,301.064 125.167,301.018 125.167 C 300.972 125.167,301.189 125.429,301.500 125.750 M75.375 126.750 C 75.377 127.117,75.411 127.247,75.451 127.040 C 75.491 126.832,75.490 126.532,75.448 126.373 C 75.406 126.214,75.374 126.383,75.375 126.750 M126.121 179.454 C 126.417 179.490,126.942 179.491,127.288 179.455 C 127.634 179.419,127.392 179.389,126.750 179.388 C 126.108 179.387,125.825 179.417,126.121 179.454 M271.458 179.454 C 271.756 179.491,272.244 179.491,272.542 179.454 C 272.840 179.417,272.596 179.387,272.000 179.387 C 271.404 179.387,271.160 179.417,271.458 179.454 M262.991 183.125 L 262.417 183.750 263.042 183.176 C 263.623 182.641,263.743 182.500,263.616 182.500 C 263.588 182.500,263.307 182.781,262.991 183.125 M335.709 200.250 C 335.711 200.617,335.745 200.747,335.785 200.540 C 335.824 200.332,335.823 200.032,335.781 199.873 C 335.739 199.714,335.707 199.883,335.709 200.250 M126.460 204.618 C 126.668 204.658,126.968 204.656,127.127 204.615 C 127.286 204.573,127.117 204.540,126.750 204.542 C 126.383 204.544,126.253 204.578,126.460 204.618 M271.627 204.618 C 271.834 204.658,272.134 204.656,272.294 204.615 C 272.453 204.573,272.283 204.540,271.917 204.542 C 271.550 204.544,271.420 204.578,271.627 204.618 M335.728 209.833 C 335.728 210.796,335.756 211.190,335.790 210.708 C 335.823 210.227,335.823 209.440,335.790 208.958 C 335.756 208.477,335.728 208.871,335.728 209.833 M65.223 212.000 C 65.223 212.688,65.252 212.969,65.288 212.625 C 65.324 212.281,65.324 211.719,65.288 211.375 C 65.252 211.031,65.223 211.313,65.223 212.000 M244.083 214.500 C 244.441 214.867,244.772 215.167,244.818 215.167 C 244.863 215.167,244.608 214.867,244.250 214.500 C 243.892 214.133,243.562 213.833,243.516 213.833 C 243.470 213.833,243.725 214.133,244.083 214.500 M335.562 225.000 C 335.562 225.963,335.589 226.356,335.623 225.875 C 335.657 225.394,335.657 224.606,335.623 224.125 C 335.589 223.644,335.562 224.037,335.562 225.000 M335.389 233.667 C 335.389 234.354,335.419 234.635,335.455 234.292 C 335.491 233.948,335.491 233.385,335.455 233.042 C 335.419 232.698,335.389 232.979,335.389 233.667 M257.233 244.667 C 257.233 245.996,257.259 246.540,257.290 245.875 C 257.322 245.210,257.322 244.123,257.290 243.458 C 257.259 242.794,257.233 243.338,257.233 244.667 M141.396 244.583 C 141.396 245.592,141.424 245.983,141.457 245.452 C 141.490 244.922,141.490 244.097,141.456 243.619 C 141.422 243.141,141.395 243.575,141.396 244.583 M310.573 289.875 L 310.083 290.417 310.625 289.927 C 311.130 289.471,311.243 289.333,311.115 289.333 C 311.086 289.333,310.842 289.577,310.573 289.875 " stroke="none" fill="#8c8c94" fill-rule="evenodd"></path><path id="path3" d="M284.548 191.917 C 284.549 192.375,284.581 192.543,284.620 192.289 C 284.658 192.036,284.657 191.661,284.617 191.456 C 284.578 191.251,284.546 191.458,284.548 191.917 M198.458 197.123 C 198.940 197.157,199.727 197.157,200.208 197.123 C 200.690 197.089,200.296 197.062,199.333 197.062 C 198.371 197.062,197.977 197.089,198.458 197.123 M65.228 214.833 C 65.228 215.796,65.256 216.190,65.290 215.708 C 65.323 215.227,65.323 214.440,65.290 213.958 C 65.256 213.477,65.228 213.871,65.228 214.833 M154.406 214.542 L 153.917 215.083 154.458 214.594 C 154.756 214.325,155.000 214.081,155.000 214.052 C 155.000 213.923,154.862 214.037,154.406 214.542 M335.552 222.417 C 335.553 222.967,335.584 223.172,335.621 222.872 C 335.658 222.572,335.657 222.122,335.619 221.872 C 335.581 221.622,335.551 221.867,335.552 222.417 M65.223 240.667 C 65.223 241.354,65.252 241.635,65.288 241.292 C 65.324 240.948,65.324 240.385,65.288 240.042 C 65.252 239.698,65.223 239.979,65.223 240.667 " stroke="none" fill="#7c8484" fill-rule="evenodd"></path><path id="path4" d="M96.375 66.448 C 96.535 66.490,96.798 66.490,96.958 66.448 C 97.119 66.406,96.987 66.372,96.667 66.372 C 96.346 66.372,96.215 66.406,96.375 66.448 M58.073 83.375 L 57.583 83.917 58.125 83.427 C 58.630 82.971,58.743 82.833,58.615 82.833 C 58.586 82.833,58.342 83.077,58.073 83.375 M338.667 83.052 C 338.667 83.081,338.910 83.325,339.208 83.594 L 339.750 84.083 339.260 83.542 C 338.804 83.037,338.667 82.923,338.667 83.052 M141.250 85.000 C 141.701 85.458,142.108 85.833,142.154 85.833 C 142.200 85.833,141.868 85.458,141.417 85.000 C 140.965 84.542,140.558 84.167,140.513 84.167 C 140.467 84.167,140.799 84.542,141.250 85.000 M196.711 89.120 C 196.964 89.158,197.339 89.157,197.544 89.117 C 197.749 89.078,197.542 89.046,197.083 89.048 C 196.625 89.049,196.457 89.081,196.711 89.120 M204.377 89.120 C 204.631 89.158,205.006 89.157,205.211 89.117 C 205.416 89.078,205.208 89.046,204.750 89.048 C 204.292 89.049,204.124 89.081,204.377 89.120 M118.158 108.292 L 117.583 108.917 118.208 108.342 C 118.790 107.808,118.910 107.667,118.783 107.667 C 118.755 107.667,118.474 107.948,118.158 108.292 M75.372 125.667 C 75.372 125.987,75.406 126.119,75.448 125.958 C 75.490 125.798,75.490 125.535,75.448 125.375 C 75.406 125.215,75.372 125.346,75.372 125.667 M75.372 127.833 C 75.372 128.154,75.406 128.285,75.448 128.125 C 75.490 127.965,75.490 127.702,75.448 127.542 C 75.406 127.381,75.372 127.513,75.372 127.833 M139.383 192.000 C 139.383 192.504,139.415 192.710,139.453 192.458 C 139.491 192.206,139.491 191.794,139.453 191.542 C 139.415 191.290,139.383 191.496,139.383 192.000 M65.539 195.500 C 65.539 195.821,65.573 195.952,65.615 195.792 C 65.657 195.631,65.657 195.369,65.615 195.208 C 65.573 195.048,65.539 195.179,65.539 195.500 M335.539 197.167 C 335.539 197.487,335.573 197.619,335.615 197.458 C 335.657 197.298,335.657 197.035,335.615 196.875 C 335.573 196.715,335.539 196.846,335.539 197.167 M196.875 197.115 C 197.035 197.157,197.298 197.157,197.458 197.115 C 197.619 197.073,197.487 197.039,197.167 197.039 C 196.846 197.039,196.715 197.073,196.875 197.115 M201.208 197.115 C 201.369 197.157,201.631 197.157,201.792 197.115 C 201.952 197.073,201.821 197.039,201.500 197.039 C 201.179 197.039,201.048 197.073,201.208 197.115 M193.708 197.282 C 193.869 197.323,194.131 197.323,194.292 197.282 C 194.452 197.240,194.321 197.205,194.000 197.205 C 193.679 197.205,193.548 197.240,193.708 197.282 M204.375 197.282 C 204.535 197.323,204.798 197.323,204.958 197.282 C 205.119 197.240,204.987 197.205,204.667 197.205 C 204.346 197.205,204.215 197.240,204.375 197.282 M335.738 204.500 C 335.738 206.563,335.762 207.406,335.791 206.375 C 335.820 205.344,335.820 203.656,335.791 202.625 C 335.762 201.594,335.738 202.438,335.738 204.500 M65.246 228.000 C 65.246 234.371,65.266 236.977,65.292 233.792 C 65.317 230.606,65.317 225.394,65.292 222.208 C 65.266 219.023,65.246 221.629,65.246 228.000 M335.564 219.583 C 335.564 220.683,335.591 221.112,335.624 220.535 C 335.656 219.959,335.656 219.059,335.623 218.535 C 335.590 218.012,335.563 218.483,335.564 219.583 M335.392 231.000 C 335.392 231.779,335.420 232.098,335.455 231.708 C 335.490 231.319,335.490 230.681,335.455 230.292 C 335.420 229.902,335.392 230.221,335.392 231.000 M245.240 273.708 L 244.750 274.250 245.292 273.760 C 245.797 273.304,245.910 273.167,245.781 273.167 C 245.752 273.167,245.509 273.410,245.240 273.708 M154.417 274.833 C 155.053 275.475,155.612 276.000,155.658 276.000 C 155.704 276.000,155.220 275.475,154.583 274.833 C 153.947 274.192,153.388 273.667,153.342 273.667 C 153.296 273.667,153.780 274.192,154.417 274.833 M313.824 286.625 L 313.250 287.250 313.875 286.676 C 314.219 286.360,314.500 286.078,314.500 286.051 C 314.500 285.923,314.359 286.043,313.824 286.625 M311.906 288.542 L 311.417 289.083 311.958 288.594 C 312.463 288.138,312.577 288.000,312.448 288.000 C 312.419 288.000,312.175 288.244,311.906 288.542 M178.914 308.167 C 178.914 318.662,178.934 322.956,178.958 317.708 C 178.983 312.460,178.983 303.873,178.958 298.625 C 178.934 293.377,178.914 297.671,178.914 308.167 M198.792 292.287 C 199.090 292.324,199.577 292.324,199.875 292.287 C 200.173 292.250,199.929 292.220,199.333 292.220 C 198.737 292.220,198.494 292.250,198.792 292.287 M191.042 328.115 C 191.202 328.157,191.465 328.157,191.625 328.115 C 191.785 328.073,191.654 328.039,191.333 328.039 C 191.012 328.039,190.881 328.073,191.042 328.115 M209.208 328.115 C 209.369 328.157,209.631 328.157,209.792 328.115 C 209.952 328.073,209.821 328.039,209.500 328.039 C 209.179 328.039,209.048 328.073,209.208 328.115 " stroke="none" fill="#5b5f67" fill-rule="evenodd"></path></g></svg>