<svg width="950" height="201" viewBox="0 0 950 201" fill="none" xmlns="http://www.w3.org/2000/svg">
<mask id="path-1-inside-1_64_2" fill="white">
<path d="M196.066 118H178.078L145.676 62.6875V118H128.859V33.9766H146.848L179.25 89.3477V33.9766H196.066V118ZM269.719 86.0664C269.719 90.7539 268.879 95.1289 267.199 99.1914C265.52 103.215 263.234 106.711 260.344 109.68C257.453 112.609 254.055 114.934 250.148 116.652C246.281 118.332 242.121 119.172 237.668 119.172C233.254 119.172 229.094 118.332 225.188 116.652C221.32 114.934 217.922 112.609 214.992 109.68C212.102 106.711 209.816 103.215 208.137 99.1914C206.457 95.1289 205.617 90.7539 205.617 86.0664C205.617 81.3008 206.457 76.8867 208.137 72.8242C209.816 68.7617 212.102 65.2656 214.992 62.3359C217.922 59.3672 221.32 57.043 225.188 55.3633C229.094 53.6836 233.254 52.8438 237.668 52.8438C242.121 52.8438 246.281 53.6445 250.148 55.2461C254.055 56.8086 257.453 59.0547 260.344 61.9844C263.234 64.875 265.52 68.3711 267.199 72.4727C268.879 76.5352 269.719 81.0664 269.719 86.0664ZM253.605 86.0664C253.605 83.4883 253.176 81.1641 252.316 79.0938C251.496 76.9844 250.363 75.1875 248.918 73.7031C247.473 72.1797 245.773 71.0273 243.82 70.2461C241.906 69.4258 239.855 69.0156 237.668 69.0156C235.48 69.0156 233.41 69.4258 231.457 70.2461C229.543 71.0273 227.863 72.1797 226.418 73.7031C225.012 75.1875 223.898 76.9844 223.078 79.0938C222.258 81.1641 221.848 83.4883 221.848 86.0664C221.848 88.4883 222.258 90.7344 223.078 92.8047C223.898 94.875 225.012 96.6719 226.418 98.1953C227.863 99.7188 229.543 100.93 231.457 101.828C233.41 102.688 235.48 103.117 237.668 103.117C239.855 103.117 241.906 102.707 243.82 101.887C245.773 101.066 247.473 99.9141 248.918 98.4297C250.363 96.9453 251.496 95.1484 252.316 93.0391C253.176 90.9297 253.605 88.6055 253.605 86.0664ZM309.562 118C305.695 118 302.062 117.277 298.664 115.832C295.266 114.348 292.277 112.336 289.699 109.797C287.16 107.219 285.148 104.23 283.664 100.832C282.219 97.4336 281.496 93.8008 281.496 89.9336V71.3008H273.703V55.3633H281.496V30.2852H297.434V55.3633H321.691V71.3008H297.434V89.9336C297.434 91.6133 297.746 93.1953 298.371 94.6797C298.996 96.125 299.855 97.3945 300.949 98.4883C302.043 99.582 303.332 100.461 304.816 101.125C306.301 101.75 307.883 102.062 309.562 102.062H321.691V118H309.562ZM355.676 102.648C356.301 102.844 356.926 102.98 357.551 103.059C358.176 103.098 358.801 103.117 359.426 103.117C360.988 103.117 362.492 102.902 363.938 102.473C365.383 102.043 366.73 101.438 367.98 100.656C369.27 99.8359 370.402 98.8594 371.379 97.7266C372.395 96.5547 373.215 95.2656 373.84 93.8594L385.559 105.637C384.074 107.746 382.355 109.641 380.402 111.32C378.488 113 376.398 114.426 374.133 115.598C371.906 116.77 369.543 117.648 367.043 118.234C364.582 118.859 362.043 119.172 359.426 119.172C355.012 119.172 350.852 118.352 346.945 116.711C343.078 115.07 339.68 112.785 336.75 109.855C333.859 106.926 331.574 103.449 329.895 99.4258C328.215 95.3633 327.375 90.9102 327.375 86.0664C327.375 81.1055 328.215 76.5742 329.895 72.4727C331.574 68.3711 333.859 64.875 336.75 61.9844C339.68 59.0938 343.078 56.8477 346.945 55.2461C350.852 53.6445 355.012 52.8438 359.426 52.8438C362.043 52.8438 364.602 53.1562 367.102 53.7812C369.602 54.4063 371.965 55.3047 374.191 56.4766C376.457 57.6484 378.566 59.0938 380.52 60.8125C382.473 62.4922 384.191 64.3867 385.676 66.4961L355.676 102.648ZM363.879 69.6602C363.137 69.3867 362.395 69.2109 361.652 69.1328C360.949 69.0547 360.207 69.0156 359.426 69.0156C357.238 69.0156 355.168 69.4258 353.215 70.2461C351.301 71.0273 349.621 72.1602 348.176 73.6445C346.77 75.1289 345.656 76.9258 344.836 79.0352C344.016 81.1055 343.605 83.4492 343.605 86.0664C343.605 86.6523 343.625 87.3164 343.664 88.0586C343.742 88.8008 343.84 89.5625 343.957 90.3438C344.113 91.0859 344.289 91.8086 344.484 92.5117C344.68 93.2148 344.934 93.8398 345.246 94.3867L363.879 69.6602ZM472.98 95.3242C472.98 98.6055 472.355 101.711 471.105 104.641C469.855 107.531 468.137 110.051 465.949 112.199C463.801 114.348 461.262 116.047 458.332 117.297C455.441 118.547 452.336 119.172 449.016 119.172C446.047 119.172 443.195 118.664 440.461 117.648C437.727 116.594 435.246 115.07 433.02 113.078C430.832 115.07 428.371 116.594 425.637 117.648C422.941 118.664 420.09 119.172 417.082 119.172C413.762 119.172 410.656 118.547 407.766 117.297C404.875 116.047 402.336 114.348 400.148 112.199C398 110.051 396.301 107.531 395.051 104.641C393.801 101.711 393.176 98.6055 393.176 95.3242V55.3633H409.172V95.3242C409.172 96.418 409.367 97.4531 409.758 98.4297C410.188 99.3672 410.754 100.207 411.457 100.949C412.199 101.652 413.039 102.219 413.977 102.648C414.953 103.039 415.988 103.234 417.082 103.234C418.176 103.234 419.211 103.039 420.188 102.648C421.164 102.219 422.023 101.652 422.766 100.949C423.508 100.207 424.074 99.3672 424.465 98.4297C424.895 97.4531 425.109 96.418 425.109 95.3242V55.3633H441.047V95.3242C441.047 96.418 441.262 97.4531 441.691 98.4297C442.121 99.3672 442.688 100.207 443.391 100.949C444.133 101.652 444.973 102.219 445.91 102.648C446.887 103.039 447.922 103.234 449.016 103.234C450.109 103.234 451.145 103.039 452.121 102.648C453.098 102.219 453.938 101.652 454.641 100.949C455.383 100.207 455.969 99.3672 456.398 98.4297C456.828 97.4531 457.043 96.418 457.043 95.3242V55.3633H472.98V95.3242ZM545.227 86.0664C545.227 90.7539 544.387 95.1289 542.707 99.1914C541.027 103.215 538.742 106.711 535.852 109.68C532.961 112.609 529.562 114.934 525.656 116.652C521.789 118.332 517.629 119.172 513.176 119.172C508.762 119.172 504.602 118.332 500.695 116.652C496.828 114.934 493.43 112.609 490.5 109.68C487.609 106.711 485.324 103.215 483.645 99.1914C481.965 95.1289 481.125 90.7539 481.125 86.0664C481.125 81.3008 481.965 76.8867 483.645 72.8242C485.324 68.7617 487.609 65.2656 490.5 62.3359C493.43 59.3672 496.828 57.043 500.695 55.3633C504.602 53.6836 508.762 52.8438 513.176 52.8438C517.629 52.8438 521.789 53.6445 525.656 55.2461C529.562 56.8086 532.961 59.0547 535.852 61.9844C538.742 64.875 541.027 68.3711 542.707 72.4727C544.387 76.5352 545.227 81.0664 545.227 86.0664ZM529.113 86.0664C529.113 83.4883 528.684 81.1641 527.824 79.0938C527.004 76.9844 525.871 75.1875 524.426 73.7031C522.98 72.1797 521.281 71.0273 519.328 70.2461C517.414 69.4258 515.363 69.0156 513.176 69.0156C510.988 69.0156 508.918 69.4258 506.965 70.2461C505.051 71.0273 503.371 72.1797 501.926 73.7031C500.52 75.1875 499.406 76.9844 498.586 79.0938C497.766 81.1641 497.355 83.4883 497.355 86.0664C497.355 88.4883 497.766 90.7344 498.586 92.8047C499.406 94.875 500.52 96.6719 501.926 98.1953C503.371 99.7188 505.051 100.93 506.965 101.828C508.918 102.688 510.988 103.117 513.176 103.117C515.363 103.117 517.414 102.707 519.328 101.887C521.281 101.066 522.98 99.9141 524.426 98.4297C525.871 96.9453 527.004 95.1484 527.824 93.0391C528.684 90.9297 529.113 88.6055 529.113 86.0664ZM570.07 118H554.074V55.2461H557.941L563.215 62.6875C565.793 60.3438 568.723 58.5469 572.004 57.2969C575.285 56.0078 578.684 55.3633 582.199 55.3633H596.32V71.3008H582.199C580.52 71.3008 578.938 71.6133 577.453 72.2383C575.969 72.8633 574.68 73.7227 573.586 74.8164C572.492 75.9102 571.633 77.1992 571.008 78.6836C570.383 80.168 570.07 81.75 570.07 83.4297V118ZM635.227 118C631.359 118 627.727 117.277 624.328 115.832C620.93 114.348 617.941 112.336 615.363 109.797C612.824 107.219 610.812 104.23 609.328 100.832C607.883 97.4336 607.16 93.8008 607.16 89.9336V71.3008H599.367V55.3633H607.16V30.2852H623.098V55.3633H647.355V71.3008H623.098V89.9336C623.098 91.6133 623.41 93.1953 624.035 94.6797C624.66 96.125 625.52 97.3945 626.613 98.4883C627.707 99.582 628.996 100.461 630.48 101.125C631.965 101.75 633.547 102.062 635.227 102.062H647.355V118H635.227ZM672.375 118H656.379V30.2852H672.375V58C674.289 56.5547 676.262 55.5391 678.293 54.9531C680.324 54.3281 682.395 54.0156 684.504 54.0156C688.371 54.0156 692.004 54.7578 695.402 56.2422C698.801 57.6875 701.75 59.6992 704.25 62.2773C706.789 64.8164 708.781 67.8047 710.227 71.2422C711.711 74.6406 712.453 78.2734 712.453 82.1406V118H696.34V82.1406H696.457C696.457 80.5 696.145 78.957 695.52 77.5117C694.895 76.0273 694.035 74.7383 692.941 73.6445C691.848 72.5508 690.578 71.6914 689.133 71.0664C687.688 70.4414 686.145 70.1289 684.504 70.1289C682.824 70.1289 681.242 70.4414 679.758 71.0664C678.273 71.6914 676.984 72.5508 675.891 73.6445C674.797 74.7383 673.938 76.0273 673.312 77.5117C672.688 78.957 672.375 80.5 672.375 82.1406V118ZM738.527 141.906V125.793L747.434 125.91C748.996 125.91 750.5 125.656 751.945 125.148C753.391 124.641 754.719 123.938 755.93 123.039C757.18 122.141 758.273 121.066 759.211 119.816C760.148 118.605 760.91 117.277 761.496 115.832C759.738 116.574 757.941 117.316 756.105 118.059C754.309 118.801 752.492 119.172 750.656 119.172C746.789 119.172 743.156 118.488 739.758 117.121C736.359 115.754 733.371 113.82 730.793 111.32C728.254 108.781 726.242 105.715 724.758 102.121C723.312 98.4883 722.59 94.4258 722.59 89.9336V55.2461H738.527V89.9336C738.527 92.1602 738.84 94.1133 739.465 95.793C740.129 97.4336 741.008 98.8203 742.102 99.9531C743.195 101.047 744.465 101.867 745.91 102.414C747.395 102.961 748.977 103.234 750.656 103.234C752.297 103.234 753.84 102.863 755.285 102.121C756.77 101.34 758.059 100.324 759.152 99.0742C760.246 97.8242 761.105 96.418 761.73 94.8555C762.355 93.2539 762.668 91.6133 762.668 89.9336V55.2461H778.781V110.09C778.742 114.504 777.883 118.645 776.203 122.512C774.523 126.379 772.219 129.758 769.289 132.648C766.398 135.539 763.02 137.824 759.152 139.504C755.285 141.184 751.145 142.023 746.73 142.023L738.527 141.906Z"/>
</mask>
<path d="M196.066 118V121H199.066V118H196.066ZM178.078 118L175.49 119.516L176.359 121H178.078V118ZM145.676 62.6875L148.264 61.1711L142.676 51.6312V62.6875H145.676ZM145.676 118V121H148.676V118H145.676ZM128.859 118H125.859V121H128.859V118ZM128.859 33.9766V30.9766H125.859V33.9766H128.859ZM146.848 33.9766L149.437 32.4614L148.568 30.9766H146.848V33.9766ZM179.25 89.3477L176.661 90.8628L182.25 100.414V89.3477H179.25ZM179.25 33.9766V30.9766H176.25V33.9766H179.25ZM196.066 33.9766H199.066V30.9766H196.066V33.9766ZM196.066 115H178.078V121H196.066V115ZM180.667 116.484L148.264 61.1711L143.087 64.2039L175.49 119.516L180.667 116.484ZM142.676 62.6875V118H148.676V62.6875H142.676ZM145.676 115H128.859V121H145.676V115ZM131.859 118V33.9766H125.859V118H131.859ZM128.859 36.9766H146.848V30.9766H128.859V36.9766ZM144.258 35.4918L176.661 90.8628L181.839 87.8325L149.437 32.4614L144.258 35.4918ZM182.25 89.3477V33.9766H176.25V89.3477H182.25ZM179.25 36.9766H196.066V30.9766H179.25V36.9766ZM193.066 33.9766V118H199.066V33.9766H193.066ZM267.199 99.1914L269.968 100.347L269.972 100.338L267.199 99.1914ZM260.344 109.68L262.479 111.787L262.486 111.78L262.493 111.773L260.344 109.68ZM250.148 116.652L251.344 119.404L251.35 119.401L251.357 119.398L250.148 116.652ZM225.188 116.652L223.969 119.394L223.986 119.401L224.002 119.408L225.188 116.652ZM214.992 109.68L212.843 111.773L212.857 111.787L212.871 111.801L214.992 109.68ZM208.137 99.1914L205.364 100.338L205.368 100.347L208.137 99.1914ZM214.992 62.3359L212.857 60.2287L212.857 60.2289L214.992 62.3359ZM225.188 55.3633L224.002 52.6073L223.992 52.6116L225.188 55.3633ZM250.148 55.2461L249.001 58.0178L249.017 58.0248L249.034 58.0315L250.148 55.2461ZM260.344 61.9844L258.208 64.0914L258.215 64.0986L258.222 64.1057L260.344 61.9844ZM267.199 72.4727L264.423 73.6096L264.427 73.6189L267.199 72.4727ZM252.316 79.0938L249.52 80.1811L249.533 80.2126L249.546 80.2439L252.316 79.0938ZM248.918 73.7031L246.742 75.7679L246.755 75.782L246.769 75.796L248.918 73.7031ZM243.82 70.2461L242.639 73.0035L242.672 73.0179L242.706 73.0315L243.82 70.2461ZM231.457 70.2461L232.591 73.0236L232.605 73.0179L232.619 73.012L231.457 70.2461ZM226.418 73.7031L224.242 71.6383L224.24 71.6399L226.418 73.7031ZM223.078 79.0938L225.867 80.1988L225.871 80.19L225.874 80.1811L223.078 79.0938ZM226.418 98.1953L224.214 100.23L224.227 100.245L224.242 100.26L226.418 98.1953ZM231.457 101.828L230.182 104.544L230.215 104.559L230.249 104.574L231.457 101.828ZM243.82 101.887L242.659 99.1208L242.649 99.125L242.639 99.1293L243.82 101.887ZM252.316 93.0391L249.538 91.9072L249.529 91.9294L249.52 91.9517L252.316 93.0391ZM266.719 86.0664C266.719 90.387 265.946 94.3697 264.427 98.0451L269.972 100.338C271.811 95.8881 272.719 91.1208 272.719 86.0664H266.719ZM264.431 98.0357C262.889 101.729 260.808 104.903 258.194 107.587L262.493 111.773C265.661 108.519 268.15 104.701 269.968 100.347L264.431 98.0357ZM258.208 107.573C255.593 110.223 252.513 112.334 248.94 113.906L251.357 119.398C255.597 117.533 259.313 114.996 262.479 111.787L258.208 107.573ZM248.953 113.901C245.484 115.407 241.733 116.172 237.668 116.172V122.172C242.509 122.172 247.078 121.257 251.344 119.404L248.953 113.901ZM237.668 116.172C233.646 116.172 229.89 115.409 226.373 113.896L224.002 119.408C228.297 121.255 232.862 122.172 237.668 122.172V116.172ZM226.406 113.911C222.868 112.338 219.777 110.222 217.113 107.558L212.871 111.801C216.067 114.997 219.773 117.529 223.969 119.394L226.406 113.911ZM217.142 107.587C214.528 104.903 212.447 101.729 210.905 98.0357L205.368 100.347C207.186 104.701 209.675 108.519 212.843 111.773L217.142 107.587ZM210.909 98.0451C209.389 94.3697 208.617 90.387 208.617 86.0664H202.617C202.617 91.1208 203.525 95.8881 205.364 100.338L210.909 98.0451ZM208.617 86.0664C208.617 81.6608 209.392 77.6399 210.909 73.9705L205.364 71.6779C203.522 76.1335 202.617 80.9408 202.617 86.0664H208.617ZM210.909 73.9705C212.451 70.2417 214.528 67.0782 217.128 64.443L212.857 60.2289C209.676 63.4531 207.182 67.2817 205.364 71.6779L210.909 73.9705ZM217.128 64.4432C219.785 61.7504 222.863 59.6436 226.383 58.1149L223.992 52.6116C219.777 54.4424 216.059 56.984 212.857 60.2287L217.128 64.4432ZM226.373 58.1193C229.89 56.6067 233.646 55.8438 237.668 55.8438V49.8438C232.862 49.8438 228.297 50.7605 224.002 52.6073L226.373 58.1193ZM237.668 55.8438C241.753 55.8438 245.52 56.5764 249.001 58.0178L251.296 52.4744C247.042 50.7126 242.49 49.8438 237.668 49.8438V55.8438ZM249.034 58.0315C252.566 59.4441 255.614 61.4624 258.208 64.0914L262.479 59.8773C259.292 56.647 255.544 54.1731 251.263 52.4607L249.034 58.0315ZM258.222 64.1057C260.809 66.6919 262.881 69.8451 264.423 73.6096L269.975 71.3357C268.158 66.8971 265.66 63.0581 262.465 59.8631L258.222 64.1057ZM264.427 73.6189C265.937 77.2714 266.719 81.406 266.719 86.0664H272.719C272.719 80.7268 271.821 75.7989 269.972 71.3264L264.427 73.6189ZM256.605 86.0664C256.605 83.1523 256.119 80.4291 255.087 77.9436L249.546 80.2439C250.233 81.899 250.605 83.8243 250.605 86.0664H256.605ZM255.112 78.0064C254.16 75.5568 252.819 73.4087 251.067 71.6103L246.769 75.796C247.908 76.9663 248.832 78.4119 249.52 80.1811L255.112 78.0064ZM251.094 71.6383C249.351 69.8003 247.289 68.4024 244.934 67.4607L242.706 73.0315C244.258 73.6523 245.595 74.5591 246.742 75.7679L251.094 71.6383ZM245.002 67.4887C242.696 66.5003 240.241 66.0156 237.668 66.0156V72.0156C239.47 72.0156 241.117 72.3513 242.639 73.0035L245.002 67.4887ZM237.668 66.0156C235.095 66.0156 232.628 66.5003 230.295 67.4801L232.619 73.012C234.192 72.3513 235.866 72.0156 237.668 72.0156V66.0156ZM230.323 67.4686C228.009 68.4133 225.975 69.811 224.242 71.6383L228.594 75.7679C229.751 74.5483 231.077 73.6414 232.591 73.0236L230.323 67.4686ZM224.24 71.6399C222.539 73.4352 221.228 75.5735 220.282 78.0064L225.874 80.1811C226.569 78.3952 227.484 76.9398 228.596 75.7664L224.24 71.6399ZM220.289 77.9887C219.309 80.4616 218.848 83.1688 218.848 86.0664H224.848C224.848 83.8078 225.206 81.8665 225.867 80.1988L220.289 77.9887ZM218.848 86.0664C218.848 88.8334 219.318 91.458 220.289 93.9098L225.867 91.6996C225.198 90.0107 224.848 88.1432 224.848 86.0664H218.848ZM220.289 93.9098C221.235 96.2977 222.539 98.4159 224.214 100.23L228.622 96.1605C227.485 94.9279 226.562 93.4523 225.867 91.6996L220.289 93.9098ZM224.242 100.26C225.946 102.057 227.932 103.488 230.182 104.544L232.732 99.1124C231.154 98.3717 229.78 97.3808 228.594 96.1305L224.242 100.26ZM230.249 104.574C232.592 105.605 235.075 106.117 237.668 106.117V100.117C235.886 100.117 234.228 99.7697 232.665 99.0822L230.249 104.574ZM237.668 106.117C240.241 106.117 242.696 105.633 245.002 104.644L242.639 99.1293C241.117 99.7815 239.47 100.117 237.668 100.117V106.117ZM244.982 104.653C247.298 103.68 249.335 102.302 251.067 100.523L246.769 96.3368C245.61 97.5263 244.249 98.4527 242.659 99.1208L244.982 104.653ZM251.067 100.523C252.819 98.7241 254.16 96.576 255.112 94.1264L249.52 91.9517C248.832 93.7209 247.908 95.1665 246.769 96.3368L251.067 100.523ZM255.095 94.171C256.116 91.6631 256.605 88.9491 256.605 86.0664H250.605C250.605 88.2619 250.235 90.1962 249.538 91.9072L255.095 94.171ZM298.664 115.832L297.463 118.581L297.477 118.587L297.49 118.593L298.664 115.832ZM289.699 109.797L287.562 111.902L287.578 111.918L287.594 111.934L289.699 109.797ZM283.664 100.832L280.903 102.006L280.909 102.02L280.915 102.033L283.664 100.832ZM281.496 71.3008H284.496V68.3008H281.496V71.3008ZM273.703 71.3008H270.703V74.3008H273.703V71.3008ZM273.703 55.3633V52.3633H270.703V55.3633H273.703ZM281.496 55.3633V58.3633H284.496V55.3633H281.496ZM281.496 30.2852V27.2852H278.496V30.2852H281.496ZM297.434 30.2852H300.434V27.2852H297.434V30.2852ZM297.434 55.3633H294.434V58.3633H297.434V55.3633ZM321.691 55.3633H324.691V52.3633H321.691V55.3633ZM321.691 71.3008V74.3008H324.691V71.3008H321.691ZM297.434 71.3008V68.3008H294.434V71.3008H297.434ZM298.371 94.6797L295.606 95.8439L295.612 95.8572L295.618 95.8704L298.371 94.6797ZM300.949 98.4883L303.071 96.367L300.949 98.4883ZM304.816 101.125L303.591 103.863L303.622 103.877L303.652 103.89L304.816 101.125ZM321.691 102.062H324.691V99.0625H321.691V102.062ZM321.691 118V121H324.691V118H321.691ZM309.562 115C306.079 115 302.848 114.351 299.838 113.071L297.49 118.593C301.277 120.203 305.311 121 309.562 121V115ZM299.865 113.083C296.794 111.742 294.114 109.935 291.804 107.659L287.594 111.934C290.44 114.737 293.737 116.954 297.463 118.581L299.865 113.083ZM291.837 107.692C289.562 105.382 287.754 102.702 286.413 99.6312L280.915 102.033C282.542 105.759 284.759 109.056 287.562 111.902L291.837 107.692ZM286.425 99.6579C285.145 96.6482 284.496 93.4167 284.496 89.9336H278.496C278.496 94.1849 279.293 98.219 280.903 102.006L286.425 99.6579ZM284.496 89.9336V71.3008H278.496V89.9336H284.496ZM281.496 68.3008H273.703V74.3008H281.496V68.3008ZM276.703 71.3008V55.3633H270.703V71.3008H276.703ZM273.703 58.3633H281.496V52.3633H273.703V58.3633ZM284.496 55.3633V30.2852H278.496V55.3633H284.496ZM281.496 33.2852H297.434V27.2852H281.496V33.2852ZM294.434 30.2852V55.3633H300.434V30.2852H294.434ZM297.434 58.3633H321.691V52.3633H297.434V58.3633ZM318.691 55.3633V71.3008H324.691V55.3633H318.691ZM321.691 68.3008H297.434V74.3008H321.691V68.3008ZM294.434 71.3008V89.9336H300.434V71.3008H294.434ZM294.434 89.9336C294.434 91.9956 294.819 93.9752 295.606 95.8439L301.136 93.5155C300.673 92.4154 300.434 91.2309 300.434 89.9336H294.434ZM295.618 95.8704C296.39 97.6566 297.462 99.2434 298.828 100.61L303.071 96.367C302.249 95.5456 301.602 94.5934 301.125 93.489L295.618 95.8704ZM298.828 100.61C300.193 101.975 301.79 103.058 303.591 103.863L306.042 98.3865C304.874 97.8641 303.893 97.189 303.071 96.367L298.828 100.61ZM303.652 103.89C305.521 104.677 307.5 105.062 309.562 105.062V99.0625C308.265 99.0625 307.081 98.8233 305.981 98.3601L303.652 103.89ZM309.562 105.062H321.691V99.0625H309.562V105.062ZM318.691 102.062V118H324.691V102.062H318.691ZM321.691 115H309.562V121H321.691V115ZM355.676 102.648L353.367 100.733L350.509 104.177L354.781 105.512L355.676 102.648ZM357.551 103.059L357.179 106.035L357.271 106.047L357.364 106.053L357.551 103.059ZM367.98 100.656L369.57 103.2L369.581 103.194L369.591 103.187L367.98 100.656ZM371.379 97.7266L369.112 95.7618L369.107 95.7677L371.379 97.7266ZM373.84 93.8594L375.966 91.7434L372.877 88.6387L371.098 92.641L373.84 93.8594ZM385.559 105.637L388.012 107.363L389.46 105.305L387.685 103.521L385.559 105.637ZM380.402 111.32L378.446 109.046L378.435 109.056L378.424 109.065L380.402 111.32ZM374.133 115.598L372.755 112.933L372.745 112.938L372.736 112.943L374.133 115.598ZM367.043 118.234L366.358 115.314L366.331 115.32L366.305 115.327L367.043 118.234ZM346.945 116.711L345.774 119.473L345.784 119.477L346.945 116.711ZM336.75 109.855L334.615 111.963L334.622 111.97L334.629 111.977L336.75 109.855ZM329.895 99.4258L327.122 100.572L327.126 100.582L329.895 99.4258ZM336.75 61.9844L334.643 59.8489L334.636 59.8559L334.629 59.8631L336.75 61.9844ZM346.945 55.2461L345.807 52.4703L345.797 52.4744L346.945 55.2461ZM367.102 53.7812L367.829 50.8708L367.102 53.7812ZM374.191 56.4766L372.794 59.1313L372.804 59.1363L372.813 59.1412L374.191 56.4766ZM380.52 60.8125L378.538 63.0646L378.55 63.0759L378.563 63.0871L380.52 60.8125ZM385.676 66.4961L387.984 68.4119L389.45 66.6461L388.129 64.7696L385.676 66.4961ZM363.879 69.6602L366.275 71.4656L368.705 68.241L364.916 66.8451L363.879 69.6602ZM361.652 69.1328L361.321 72.1145L361.33 72.1154L361.338 72.1163L361.652 69.1328ZM353.215 70.2461L354.349 73.0236L354.363 73.0179L354.377 73.012L353.215 70.2461ZM348.176 73.6445L346.026 71.5517L346.012 71.5664L345.998 71.5813L348.176 73.6445ZM344.836 79.0352L347.625 80.1403L347.629 80.1314L347.632 80.1225L344.836 79.0352ZM343.664 88.0586L340.668 88.2163L340.672 88.2946L340.681 88.3727L343.664 88.0586ZM343.957 90.3438L340.99 90.7888L341.003 90.8757L341.021 90.9618L343.957 90.3438ZM345.246 94.3867L342.641 95.8751L344.901 99.8296L347.642 96.1922L345.246 94.3867ZM354.781 105.512C355.57 105.758 356.37 105.934 357.179 106.035L357.923 100.082C357.482 100.027 357.032 99.9291 356.571 99.785L354.781 105.512ZM357.364 106.053C358.051 106.096 358.738 106.117 359.426 106.117V100.117C358.863 100.117 358.301 100.1 357.738 100.064L357.364 106.053ZM359.426 106.117C361.267 106.117 363.06 105.863 364.792 105.348L363.083 99.597C361.925 99.9413 360.709 100.117 359.426 100.117V106.117ZM364.792 105.348C366.491 104.843 368.086 104.128 369.57 103.2L366.39 98.1123C365.375 98.7471 364.275 99.2425 363.083 99.597L364.792 105.348ZM369.591 103.187C371.122 102.213 372.479 101.045 373.651 99.6854L369.107 95.7677C368.326 96.6737 367.417 97.4589 366.37 98.1253L369.591 103.187ZM373.646 99.6914C374.854 98.2972 375.835 96.757 376.581 95.0778L371.098 92.641C370.595 93.7742 369.935 94.8121 369.112 95.7618L373.646 99.6914ZM371.713 95.9754L383.432 107.753L387.685 103.521L375.966 91.7434L371.713 95.9754ZM383.105 103.91C381.763 105.817 380.211 107.528 378.446 109.046L382.358 113.595C384.5 111.754 386.385 109.675 388.012 107.363L383.105 103.91ZM378.424 109.065C376.693 110.584 374.805 111.873 372.755 112.933L375.511 118.262C377.992 116.979 380.284 115.416 382.381 113.575L378.424 109.065ZM372.736 112.943C370.739 113.994 368.616 114.784 366.358 115.314L367.728 121.155C370.47 120.512 373.074 119.545 375.53 118.252L372.736 112.943ZM366.305 115.327C364.092 115.889 361.802 116.172 359.426 116.172V122.172C362.284 122.172 365.072 121.83 367.781 121.142L366.305 115.327ZM359.426 116.172C355.394 116.172 351.63 115.425 348.107 113.945L345.784 119.477C350.073 121.278 354.63 122.172 359.426 122.172V116.172ZM348.117 113.949C344.599 112.457 341.525 110.387 338.871 107.734L334.629 111.977C337.835 115.183 341.557 117.684 345.774 119.473L348.117 113.949ZM338.885 107.748C336.281 105.108 334.203 101.96 332.663 98.27L327.126 100.582C328.945 104.938 331.438 108.743 334.615 111.963L338.885 107.748ZM332.667 98.2795C331.152 94.6159 330.375 90.557 330.375 86.0664H324.375C324.375 91.2633 325.278 96.1107 327.122 100.572L332.667 98.2795ZM330.375 86.0664C330.375 81.4489 331.155 77.3097 332.671 73.6096L327.118 71.3357C325.274 75.8387 324.375 80.762 324.375 86.0664H330.375ZM332.671 73.6096C334.212 69.8451 336.285 66.6919 338.871 64.1057L334.629 59.8631C331.434 63.0581 328.936 66.8971 327.118 71.3357L332.671 73.6096ZM338.857 64.1199C341.506 61.5059 344.578 59.4738 348.093 58.0178L345.797 52.4744C341.579 54.2215 337.853 56.6816 334.643 59.8489L338.857 64.1199ZM348.083 58.0219C351.612 56.5751 355.384 55.8438 359.426 55.8438V49.8438C354.639 49.8438 350.091 50.714 345.807 52.4703L348.083 58.0219ZM359.426 55.8438C361.802 55.8438 364.116 56.1271 366.374 56.6917L367.829 50.8708C365.087 50.1854 362.284 49.8438 359.426 49.8438V55.8438ZM366.374 56.6917C368.647 57.2599 370.785 58.0738 372.794 59.1313L375.589 53.8218C373.145 52.5356 370.556 51.5526 367.829 50.8708L366.374 56.6917ZM372.813 59.1412C374.857 60.1985 376.764 61.5042 378.538 63.0646L382.501 58.5604C380.368 56.6833 378.057 55.0984 375.57 53.8119L372.813 59.1412ZM378.563 63.0871C380.329 64.6051 381.88 66.3155 383.222 68.2226L388.129 64.7696C386.503 62.458 384.617 60.3793 382.476 58.5379L378.563 63.0871ZM383.367 64.5803L353.367 100.733L357.984 104.564L387.984 68.4119L383.367 64.5803ZM364.916 66.8451C363.955 66.4909 362.97 66.2549 361.966 66.1493L361.338 72.1163C361.819 72.1669 362.319 72.2825 362.842 72.4752L364.916 66.8451ZM361.984 66.1512C361.16 66.0596 360.306 66.0156 359.426 66.0156V72.0156C360.108 72.0156 360.739 72.0497 361.321 72.1145L361.984 66.1512ZM359.426 66.0156C356.853 66.0156 354.386 66.5003 352.053 67.4801L354.377 73.012C355.95 72.3513 357.624 72.0156 359.426 72.0156V66.0156ZM352.081 67.4686C349.784 68.4061 347.759 69.7723 346.026 71.5517L350.325 75.7374C351.483 74.548 352.817 73.6486 354.349 73.0236L352.081 67.4686ZM345.998 71.5813C344.297 73.3766 342.986 75.5149 342.04 77.9478L347.632 80.1225C348.326 78.3366 349.242 76.8813 350.354 75.7078L345.998 71.5813ZM342.047 77.9301C341.065 80.408 340.605 83.136 340.605 86.0664H346.605C346.605 83.7624 346.966 81.8029 347.625 80.1403L342.047 77.9301ZM340.605 86.0664C340.605 86.7166 340.627 87.4347 340.668 88.2163L346.66 87.9009C346.623 87.1981 346.605 86.588 346.605 86.0664H340.605ZM340.681 88.3727C340.764 89.1611 340.867 89.9665 340.99 90.7888L346.924 89.8987C346.813 89.1585 346.721 88.4405 346.648 87.7445L340.681 88.3727ZM341.021 90.9618C341.19 91.7636 341.381 92.548 341.594 93.3147L347.375 91.7088C347.197 91.0691 347.036 90.4082 346.893 89.7257L341.021 90.9618ZM341.594 93.3147C341.845 94.2203 342.188 95.0816 342.641 95.8751L347.851 92.8983C347.679 92.5981 347.514 92.2094 347.375 91.7088L341.594 93.3147ZM347.642 96.1922L366.275 71.4656L361.483 67.8547L342.85 92.5813L347.642 96.1922ZM471.105 104.641L473.859 105.831L473.862 105.825L473.865 105.818L471.105 104.641ZM465.949 112.199L463.847 110.059L463.837 110.068L463.828 110.078L465.949 112.199ZM458.332 117.297L457.155 114.538L457.148 114.54L457.141 114.543L458.332 117.297ZM440.461 117.648L439.381 120.447L439.399 120.454L439.416 120.461L440.461 117.648ZM433.02 113.078L435.02 110.842L433.002 109.037L431 110.86L433.02 113.078ZM425.637 117.648L426.695 120.456L426.705 120.452L426.716 120.447L425.637 117.648ZM400.148 112.199L398.027 114.321L398.037 114.33L398.046 114.34L400.148 112.199ZM395.051 104.641L392.291 105.818L392.294 105.825L392.297 105.831L395.051 104.641ZM393.176 55.3633V52.3633H390.176V55.3633H393.176ZM409.172 55.3633H412.172V52.3633H409.172V55.3633ZM409.758 98.4297L406.972 99.5439L407 99.6125L407.031 99.6796L409.758 98.4297ZM411.457 100.949L409.279 103.012L409.335 103.071L409.394 103.127L411.457 100.949ZM413.977 102.648L412.727 105.376L412.794 105.406L412.862 105.434L413.977 102.648ZM420.188 102.648L421.302 105.434L421.349 105.415L421.396 105.394L420.188 102.648ZM422.766 100.949L424.829 103.127L424.858 103.099L424.887 103.071L422.766 100.949ZM424.465 98.4297L421.719 97.2215L421.707 97.2485L421.696 97.2758L424.465 98.4297ZM425.109 55.3633V52.3633H422.109V55.3633H425.109ZM441.047 55.3633H444.047V52.3633H441.047V55.3633ZM441.691 98.4297L438.945 99.6379L438.955 99.6589L438.964 99.6796L441.691 98.4297ZM443.391 100.949L441.213 103.012L441.269 103.071L441.327 103.127L443.391 100.949ZM445.91 102.648L444.66 105.376L444.727 105.406L444.796 105.434L445.91 102.648ZM452.121 102.648L453.235 105.434L453.283 105.415L453.329 105.394L452.121 102.648ZM456.398 98.4297L459.126 99.6796L459.135 99.6589L459.144 99.6379L456.398 98.4297ZM457.043 55.3633V52.3633H454.043V55.3633H457.043ZM472.98 55.3633H475.98V52.3633H472.98V55.3633ZM469.98 95.3242C469.98 98.2133 469.432 100.917 468.346 103.463L473.865 105.818C475.278 102.505 475.98 98.9976 475.98 95.3242H469.98ZM468.352 103.45C467.251 105.995 465.751 108.189 463.847 110.059L468.051 114.34C470.523 111.912 472.46 109.068 473.859 105.831L468.352 103.45ZM463.828 110.078C461.963 111.942 459.749 113.431 457.155 114.538L459.509 120.056C462.774 118.663 465.638 116.753 468.071 114.321L463.828 110.078ZM457.141 114.543C454.647 115.622 451.949 116.172 449.016 116.172V122.172C452.723 122.172 456.236 121.472 459.523 120.05L457.141 114.543ZM449.016 116.172C446.397 116.172 443.9 115.725 441.505 114.836L439.416 120.461C442.491 121.603 445.697 122.172 449.016 122.172V116.172ZM441.541 114.849C439.151 113.928 436.982 112.598 435.02 110.842L431.019 115.314C433.511 117.543 436.302 119.26 439.381 120.447L441.541 114.849ZM431 110.86C429.084 112.604 426.941 113.93 424.557 114.849L426.716 120.447C429.801 119.258 432.58 117.536 435.04 115.296L431 110.86ZM424.579 114.841C422.237 115.724 419.745 116.172 417.082 116.172V122.172C420.435 122.172 423.646 121.604 426.695 120.456L424.579 114.841ZM417.082 116.172C414.149 116.172 411.451 115.622 408.956 114.543L406.575 120.05C409.862 121.472 413.375 122.172 417.082 122.172V116.172ZM408.956 114.543C406.395 113.436 404.167 111.941 402.251 110.059L398.046 114.34C400.504 116.754 403.355 118.658 406.575 120.05L408.956 114.543ZM402.27 110.078C400.399 108.207 398.91 106.006 397.804 103.45L392.297 105.831C393.692 109.056 395.601 111.895 398.027 114.321L402.27 110.078ZM397.81 103.463C396.724 100.917 396.176 98.2133 396.176 95.3242H390.176C390.176 98.9976 390.878 102.505 392.291 105.818L397.81 103.463ZM396.176 95.3242V55.3633H390.176V95.3242H396.176ZM393.176 58.3633H409.172V52.3633H393.176V58.3633ZM406.172 55.3633V95.3242H412.172V55.3633H406.172ZM406.172 95.3242C406.172 96.7841 406.434 98.1988 406.972 99.5439L412.543 97.3155C412.3 96.7074 412.172 96.0518 412.172 95.3242H406.172ZM407.031 99.6796C407.596 100.914 408.348 102.029 409.279 103.012L413.635 98.886C413.16 98.385 412.779 97.8205 412.485 97.1797L407.031 99.6796ZM409.394 103.127C410.377 104.059 411.492 104.81 412.727 105.376L415.227 99.9212C414.586 99.6276 414.021 99.246 413.52 98.7714L409.394 103.127ZM412.862 105.434C414.207 105.972 415.622 106.234 417.082 106.234V100.234C416.354 100.234 415.699 100.106 415.091 99.863L412.862 105.434ZM417.082 106.234C418.542 106.234 419.957 105.972 421.302 105.434L419.073 99.863C418.465 100.106 417.81 100.234 417.082 100.234V106.234ZM421.396 105.394C422.674 104.832 423.826 104.078 424.829 103.127L420.702 98.7714C420.221 99.2272 419.654 99.6055 418.979 99.9025L421.396 105.394ZM424.887 103.071C425.897 102.061 426.688 100.895 427.234 99.5835L421.696 97.2758C421.461 97.8395 421.119 98.3533 420.644 98.8279L424.887 103.071ZM427.211 99.6379C427.812 98.2709 428.109 96.8232 428.109 95.3242H422.109C422.109 96.0127 421.977 96.6354 421.719 97.2215L427.211 99.6379ZM428.109 95.3242V55.3633H422.109V95.3242H428.109ZM425.109 58.3633H441.047V52.3633H425.109V58.3633ZM438.047 55.3633V95.3242H444.047V55.3633H438.047ZM438.047 95.3242C438.047 96.8232 438.344 98.2709 438.945 99.6379L444.437 97.2215C444.179 96.6354 444.047 96.0127 444.047 95.3242H438.047ZM438.964 99.6796C439.53 100.914 440.281 102.029 441.213 103.012L445.568 98.886C445.094 98.385 444.712 97.8205 444.419 97.1797L438.964 99.6796ZM441.327 103.127C442.311 104.059 443.426 104.81 444.66 105.376L447.16 99.9212C446.519 99.6276 445.955 99.246 445.454 98.7714L441.327 103.127ZM444.796 105.434C446.141 105.972 447.556 106.234 449.016 106.234V100.234C448.288 100.234 447.632 100.106 447.024 99.863L444.796 105.434ZM449.016 106.234C450.476 106.234 451.89 105.972 453.235 105.434L451.007 99.863C450.399 100.106 449.743 100.234 449.016 100.234V106.234ZM453.329 105.394C454.621 104.826 455.777 104.055 456.762 103.071L452.519 98.8279C452.098 99.2493 451.574 99.6116 450.913 99.9025L453.329 105.394ZM456.762 103.071C457.752 102.081 458.545 100.947 459.126 99.6796L453.671 97.1797C453.393 97.7872 453.014 98.3333 452.519 98.8279L456.762 103.071ZM459.144 99.6379C459.746 98.2709 460.043 96.8232 460.043 95.3242H454.043C454.043 96.0127 453.91 96.6354 453.652 97.2215L459.144 99.6379ZM460.043 95.3242V55.3633H454.043V95.3242H460.043ZM457.043 58.3633H472.98V52.3633H457.043V58.3633ZM469.98 55.3633V95.3242H475.98V55.3633H469.98ZM542.707 99.1914L545.475 100.347L545.479 100.338L542.707 99.1914ZM535.852 109.68L537.987 111.787L537.994 111.78L538.001 111.773L535.852 109.68ZM525.656 116.652L526.851 119.404L526.858 119.401L526.864 119.398L525.656 116.652ZM500.695 116.652L499.477 119.394L499.494 119.401L499.51 119.408L500.695 116.652ZM490.5 109.68L488.351 111.773L488.365 111.787L488.379 111.801L490.5 109.68ZM483.645 99.1914L480.872 100.338L480.876 100.347L483.645 99.1914ZM490.5 62.3359L488.365 60.2287L488.365 60.2289L490.5 62.3359ZM500.695 55.3633L499.51 52.6073L499.5 52.6116L500.695 55.3633ZM525.656 55.2461L524.508 58.0178L524.525 58.0248L524.542 58.0315L525.656 55.2461ZM535.852 61.9844L533.716 64.0914L533.723 64.0986L533.73 64.1057L535.852 61.9844ZM542.707 72.4727L539.931 73.6096L539.935 73.6189L542.707 72.4727ZM527.824 79.0938L525.028 80.1811L525.04 80.2126L525.053 80.2439L527.824 79.0938ZM524.426 73.7031L522.249 75.7679L522.263 75.782L522.276 75.796L524.426 73.7031ZM519.328 70.2461L518.146 73.0035L518.18 73.0179L518.214 73.0315L519.328 70.2461ZM506.965 70.2461L508.099 73.0236L508.113 73.0179L508.127 73.012L506.965 70.2461ZM501.926 73.7031L499.749 71.6383L499.748 71.6399L501.926 73.7031ZM498.586 79.0938L501.375 80.1988L501.378 80.19L501.382 80.1811L498.586 79.0938ZM501.926 98.1953L499.721 100.23L499.735 100.245L499.749 100.26L501.926 98.1953ZM506.965 101.828L505.69 104.544L505.723 104.559L505.757 104.574L506.965 101.828ZM519.328 101.887L518.166 99.1208L518.156 99.125L518.146 99.1293L519.328 101.887ZM527.824 93.0391L525.046 91.9072L525.037 91.9294L525.028 91.9517L527.824 93.0391ZM542.227 86.0664C542.227 90.387 541.454 94.3697 539.935 98.0451L545.479 100.338C547.319 95.8881 548.227 91.1208 548.227 86.0664H542.227ZM539.939 98.0357C538.397 101.729 536.316 104.903 533.702 107.587L538.001 111.773C541.169 108.519 543.658 104.701 545.475 100.347L539.939 98.0357ZM533.716 107.573C531.101 110.223 528.021 112.334 524.448 113.906L526.864 119.398C531.104 117.533 534.821 114.996 537.987 111.787L533.716 107.573ZM524.461 113.901C520.992 115.407 517.241 116.172 513.176 116.172V122.172C518.017 122.172 522.586 121.257 526.851 119.404L524.461 113.901ZM513.176 116.172C509.153 116.172 505.398 115.409 501.88 113.896L499.51 119.408C503.805 121.255 508.37 122.172 513.176 122.172V116.172ZM501.914 113.911C498.376 112.338 495.285 110.222 492.621 107.558L488.379 111.801C491.574 114.997 495.281 117.529 499.477 119.394L501.914 113.911ZM492.649 107.587C490.036 104.903 487.955 101.729 486.413 98.0357L480.876 100.347C482.694 104.701 485.183 108.519 488.351 111.773L492.649 107.587ZM486.417 98.0451C484.897 94.3697 484.125 90.387 484.125 86.0664H478.125C478.125 91.1208 479.032 95.8881 480.872 100.338L486.417 98.0451ZM484.125 86.0664C484.125 81.6608 484.9 77.6399 486.417 73.9705L480.872 71.6779C479.03 76.1335 478.125 80.9408 478.125 86.0664H484.125ZM486.417 73.9705C487.959 70.2417 490.035 67.0782 492.635 64.443L488.365 60.2289C485.183 63.4531 482.69 67.2817 480.872 71.6779L486.417 73.9705ZM492.635 64.4432C495.293 61.7504 498.371 59.6436 501.891 58.1149L499.5 52.6116C495.285 54.4424 491.567 56.984 488.365 60.2287L492.635 64.4432ZM501.88 58.1193C505.398 56.6067 509.153 55.8438 513.176 55.8438V49.8438C508.37 49.8438 503.805 50.7605 499.51 52.6073L501.88 58.1193ZM513.176 55.8438C517.26 55.8438 521.028 56.5764 524.508 58.0178L526.804 52.4744C522.55 50.7126 517.997 49.8438 513.176 49.8438V55.8438ZM524.542 58.0315C528.074 59.4441 531.122 61.4624 533.716 64.0914L537.987 59.8773C534.8 56.647 531.051 54.1731 526.77 52.4607L524.542 58.0315ZM533.73 64.1057C536.316 66.6919 538.389 69.8451 539.931 73.6096L545.483 71.3357C543.666 66.8971 541.168 63.0581 537.973 59.8631L533.73 64.1057ZM539.935 73.6189C541.445 77.2714 542.227 81.406 542.227 86.0664H548.227C548.227 80.7268 547.329 75.7989 545.479 71.3264L539.935 73.6189ZM532.113 86.0664C532.113 83.1523 531.627 80.4291 530.595 77.9436L525.053 80.2439C525.74 81.899 526.113 83.8243 526.113 86.0664H532.113ZM530.62 78.0064C529.668 75.5568 528.326 73.4087 526.575 71.6103L522.276 75.796C523.416 76.9663 524.34 78.4119 525.028 80.1811L530.62 78.0064ZM526.602 71.6383C524.858 69.8003 522.797 68.4024 520.442 67.4607L518.214 73.0315C519.766 73.6523 521.103 74.5591 522.249 75.7679L526.602 71.6383ZM520.51 67.4887C518.204 66.5003 515.749 66.0156 513.176 66.0156V72.0156C514.978 72.0156 516.624 72.3513 518.146 73.0035L520.51 67.4887ZM513.176 66.0156C510.603 66.0156 508.136 66.5003 505.803 67.4801L508.127 73.012C509.7 72.3513 511.374 72.0156 513.176 72.0156V66.0156ZM505.831 67.4686C503.517 68.4133 501.483 69.811 499.749 71.6383L504.102 75.7679C505.259 74.5483 506.585 73.6414 508.099 73.0236L505.831 67.4686ZM499.748 71.6399C498.047 73.4352 496.736 75.5735 495.79 78.0064L501.382 80.1811C502.076 78.3952 502.992 76.9398 504.104 75.7664L499.748 71.6399ZM495.797 77.9887C494.817 80.4616 494.355 83.1688 494.355 86.0664H500.355C500.355 83.8078 500.714 81.8665 501.375 80.1988L495.797 77.9887ZM494.355 86.0664C494.355 88.8334 494.825 91.458 495.797 93.9098L501.375 91.6996C500.706 90.0107 500.355 88.1432 500.355 86.0664H494.355ZM495.797 93.9098C496.743 96.2977 498.047 98.4159 499.721 100.23L504.13 96.1605C502.992 94.9279 502.069 93.4523 501.375 91.6996L495.797 93.9098ZM499.749 100.26C501.454 102.057 503.44 103.488 505.69 104.544L508.24 99.1124C506.662 98.3717 505.288 97.3808 504.102 96.1305L499.749 100.26ZM505.757 104.574C508.1 105.605 510.583 106.117 513.176 106.117V100.117C511.394 100.117 509.736 99.7697 508.173 99.0822L505.757 104.574ZM513.176 106.117C515.749 106.117 518.204 105.633 520.51 104.644L518.146 99.1293C516.624 99.7815 514.978 100.117 513.176 100.117V106.117ZM520.49 104.653C522.805 103.68 524.843 102.302 526.575 100.523L522.276 96.3368C521.118 97.5263 519.757 98.4527 518.166 99.1208L520.49 104.653ZM526.575 100.523C528.326 98.7241 529.668 96.576 530.62 94.1264L525.028 91.9517C524.34 93.7209 523.416 95.1665 522.276 96.3368L526.575 100.523ZM530.602 94.171C531.624 91.6631 532.113 88.9491 532.113 86.0664H526.113C526.113 88.2619 525.743 90.1962 525.046 91.9072L530.602 94.171ZM570.07 118V121H573.07V118H570.07ZM554.074 118H551.074V121H554.074V118ZM554.074 55.2461V52.2461H551.074V55.2461H554.074ZM557.941 55.2461L560.389 53.5115L559.492 52.2461H557.941V55.2461ZM563.215 62.6875L560.767 64.4221L562.726 67.1863L565.233 64.9073L563.215 62.6875ZM572.004 57.2969L573.072 60.1003L573.086 60.0948L573.101 60.0891L572.004 57.2969ZM596.32 55.3633H599.32V52.3633H596.32V55.3633ZM596.32 71.3008V74.3008H599.32V71.3008H596.32ZM577.453 72.2383L576.289 69.4734L577.453 72.2383ZM570.07 115H554.074V121H570.07V115ZM557.074 118V55.2461H551.074V118H557.074ZM554.074 58.2461H557.941V52.2461H554.074V58.2461ZM555.494 56.9807L560.767 64.4221L565.663 60.9529L560.389 53.5115L555.494 56.9807ZM565.233 64.9073C567.531 62.8178 570.138 61.2179 573.072 60.1003L570.936 54.4934C567.307 55.8758 564.055 57.8697 561.197 60.4677L565.233 64.9073ZM573.101 60.0891C576.034 58.937 579.06 58.3633 582.199 58.3633V52.3633C578.307 52.3633 574.537 53.0787 570.907 54.5046L573.101 60.0891ZM582.199 58.3633H596.32V52.3633H582.199V58.3633ZM593.32 55.3633V71.3008H599.32V55.3633H593.32ZM596.32 68.3008H582.199V74.3008H596.32V68.3008ZM582.199 68.3008C580.137 68.3008 578.158 68.6866 576.289 69.4734L578.617 75.0032C579.717 74.54 580.902 74.3008 582.199 74.3008V68.3008ZM576.289 69.4734C574.462 70.2427 572.844 71.3156 571.465 72.6951L575.707 76.9377C576.515 76.1297 577.476 75.4839 578.617 75.0032L576.289 69.4734ZM571.465 72.6951C570.085 74.0745 569.012 75.6924 568.243 77.5194L573.773 79.8478C574.253 78.706 574.899 77.7458 575.707 76.9377L571.465 72.6951ZM568.243 77.5194C567.456 79.3881 567.07 81.3676 567.07 83.4297H573.07C573.07 82.1324 573.31 80.9478 573.773 79.8478L568.243 77.5194ZM567.07 83.4297V118H573.07V83.4297H567.07ZM624.328 115.832L623.127 118.581L623.141 118.587L623.154 118.593L624.328 115.832ZM615.363 109.797L613.226 111.902L613.242 111.918L613.258 111.934L615.363 109.797ZM609.328 100.832L606.567 102.006L606.573 102.02L606.579 102.033L609.328 100.832ZM607.16 71.3008H610.16V68.3008H607.16V71.3008ZM599.367 71.3008H596.367V74.3008H599.367V71.3008ZM599.367 55.3633V52.3633H596.367V55.3633H599.367ZM607.16 55.3633V58.3633H610.16V55.3633H607.16ZM607.16 30.2852V27.2852H604.16V30.2852H607.16ZM623.098 30.2852H626.098V27.2852H623.098V30.2852ZM623.098 55.3633H620.098V58.3633H623.098V55.3633ZM647.355 55.3633H650.355V52.3633H647.355V55.3633ZM647.355 71.3008V74.3008H650.355V71.3008H647.355ZM623.098 71.3008V68.3008H620.098V71.3008H623.098ZM624.035 94.6797L621.27 95.8439L621.276 95.8572L621.282 95.8704L624.035 94.6797ZM626.613 98.4883L628.735 96.367L626.613 98.4883ZM630.48 101.125L629.255 103.863L629.286 103.877L629.316 103.89L630.48 101.125ZM647.355 102.062H650.355V99.0625H647.355V102.062ZM647.355 118V121H650.355V118H647.355ZM635.227 115C631.743 115 628.512 114.351 625.502 113.071L623.154 118.593C626.941 120.203 630.975 121 635.227 121V115ZM625.529 113.083C622.458 111.742 619.778 109.935 617.468 107.659L613.258 111.934C616.104 114.737 619.401 116.954 623.127 118.581L625.529 113.083ZM617.501 107.692C615.226 105.382 613.419 102.702 612.077 99.6312L606.579 102.033C608.206 105.759 610.423 109.056 613.226 111.902L617.501 107.692ZM612.089 99.6579C610.809 96.6482 610.16 93.4167 610.16 89.9336H604.16C604.16 94.1849 604.957 98.219 606.567 102.006L612.089 99.6579ZM610.16 89.9336V71.3008H604.16V89.9336H610.16ZM607.16 68.3008H599.367V74.3008H607.16V68.3008ZM602.367 71.3008V55.3633H596.367V71.3008H602.367ZM599.367 58.3633H607.16V52.3633H599.367V58.3633ZM610.16 55.3633V30.2852H604.16V55.3633H610.16ZM607.16 33.2852H623.098V27.2852H607.16V33.2852ZM620.098 30.2852V55.3633H626.098V30.2852H620.098ZM623.098 58.3633H647.355V52.3633H623.098V58.3633ZM644.355 55.3633V71.3008H650.355V55.3633H644.355ZM647.355 68.3008H623.098V74.3008H647.355V68.3008ZM620.098 71.3008V89.9336H626.098V71.3008H620.098ZM620.098 89.9336C620.098 91.9956 620.483 93.9752 621.27 95.8439L626.8 93.5155C626.337 92.4154 626.098 91.2309 626.098 89.9336H620.098ZM621.282 95.8704C622.054 97.6566 623.126 99.2434 624.492 100.61L628.735 96.367C627.913 95.5456 627.266 94.5934 626.789 93.489L621.282 95.8704ZM624.492 100.61C625.857 101.975 627.454 103.058 629.255 103.863L631.706 98.3865C630.538 97.8641 629.557 97.189 628.735 96.367L624.492 100.61ZM629.316 103.89C631.185 104.677 633.164 105.062 635.227 105.062V99.0625C633.929 99.0625 632.745 98.8233 631.645 98.3601L629.316 103.89ZM635.227 105.062H647.355V99.0625H635.227V105.062ZM644.355 102.062V118H650.355V102.062H644.355ZM647.355 115H635.227V121H647.355V115ZM672.375 118V121H675.375V118H672.375ZM656.379 118H653.379V121H656.379V118ZM656.379 30.2852V27.2852H653.379V30.2852H656.379ZM672.375 30.2852H675.375V27.2852H672.375V30.2852ZM672.375 58H669.375V64.0245L674.183 60.3941L672.375 58ZM678.293 54.9531L679.124 57.8356L679.15 57.8283L679.175 57.8205L678.293 54.9531ZM695.402 56.2422L694.202 58.9914L694.215 58.9972L694.228 59.0029L695.402 56.2422ZM704.25 62.2773L702.096 64.3658L702.112 64.3823L702.129 64.3987L704.25 62.2773ZM710.227 71.2422L707.461 72.405L707.469 72.424L707.477 72.443L710.227 71.2422ZM712.453 118V121H715.453V118H712.453ZM696.34 118H693.34V121H696.34V118ZM696.34 82.1406V79.1406H693.34V82.1406H696.34ZM696.457 82.1406V85.1406H699.457V82.1406H696.457ZM695.52 77.5117L692.755 78.6759L692.76 78.6892L692.766 78.7025L695.52 77.5117ZM679.758 71.0664L678.594 68.3015L679.758 71.0664ZM673.312 77.5117L676.066 78.7025L676.072 78.6892L676.077 78.6759L673.312 77.5117ZM672.375 115H656.379V121H672.375V115ZM659.379 118V30.2852H653.379V118H659.379ZM656.379 33.2852H672.375V27.2852H656.379V33.2852ZM669.375 30.2852V58H675.375V30.2852H669.375ZM674.183 60.3941C675.843 59.1404 677.49 58.3071 679.124 57.8356L677.461 52.0707C675.034 52.771 672.735 53.9689 670.567 55.6059L674.183 60.3941ZM679.175 57.8205C680.923 57.2827 682.696 57.0156 684.504 57.0156V51.0156C682.093 51.0156 679.726 51.3735 677.411 52.0858L679.175 57.8205ZM684.504 57.0156C687.976 57.0156 691.198 57.6795 694.202 58.9914L696.603 53.493C692.81 51.8361 688.766 51.0156 684.504 51.0156V57.0156ZM694.228 59.0029C697.269 60.2962 699.883 62.083 702.096 64.3658L706.404 60.1889C703.617 57.3154 700.332 55.0788 696.576 53.4815L694.228 59.0029ZM702.129 64.3987C704.382 66.6524 706.16 69.3116 707.461 72.405L712.992 70.0794C711.402 66.2977 709.196 62.9804 706.371 60.156L702.129 64.3987ZM707.477 72.443C708.789 75.4465 709.453 78.6686 709.453 82.1406H715.453C715.453 77.8782 714.633 73.8348 712.976 70.0414L707.477 72.443ZM709.453 82.1406V118H715.453V82.1406H709.453ZM712.453 115H696.34V121H712.453V115ZM699.34 118V82.1406H693.34V118H699.34ZM696.34 85.1406H696.457V79.1406H696.34V85.1406ZM699.457 82.1406C699.457 80.1079 699.068 78.158 698.273 76.321L692.766 78.7025C693.222 79.7561 693.457 80.8921 693.457 82.1406H699.457ZM698.284 76.3475C697.515 74.5205 696.442 72.9027 695.063 71.5232L690.82 75.7659C691.628 76.5739 692.274 77.5342 692.755 78.6759L698.284 76.3475ZM695.063 71.5232C693.697 70.157 692.11 69.0853 690.324 68.3128L687.942 73.82C689.047 74.2976 689.999 74.9445 690.82 75.7659L695.063 71.5232ZM690.324 68.3128C688.487 67.5185 686.537 67.1289 684.504 67.1289V73.1289C685.753 73.1289 686.888 73.3644 687.942 73.82L690.324 68.3128ZM684.504 67.1289C682.442 67.1289 680.462 67.5147 678.594 68.3015L680.922 73.8313C682.022 73.3681 683.207 73.1289 684.504 73.1289V67.1289ZM678.594 68.3015C676.767 69.0708 675.149 70.1438 673.769 71.5232L678.012 75.7659C678.82 74.9578 679.78 74.312 680.922 73.8313L678.594 68.3015ZM673.769 71.5232C672.39 72.9027 671.317 74.5205 670.548 76.3475L676.077 78.6759C676.558 77.5342 677.204 76.5739 678.012 75.7659L673.769 71.5232ZM670.559 76.321C669.765 78.158 669.375 80.1079 669.375 82.1406H675.375C675.375 80.8921 675.61 79.7561 676.066 78.7025L670.559 76.321ZM669.375 82.1406V118H675.375V82.1406H669.375ZM738.527 141.906H735.527V144.864L738.484 144.906L738.527 141.906ZM738.527 125.793L738.567 122.793L735.527 122.753V125.793H738.527ZM747.434 125.91L747.394 128.91L747.414 128.91H747.434V125.91ZM755.93 123.039L754.179 120.603L754.16 120.616L754.142 120.63L755.93 123.039ZM759.211 119.816L756.839 117.98L756.825 117.998L756.811 118.016L759.211 119.816ZM761.496 115.832L764.276 116.959L766.995 110.254L760.329 113.068L761.496 115.832ZM756.105 118.059L754.981 115.277L754.971 115.281L754.96 115.286L756.105 118.059ZM730.793 111.32L728.672 113.442L728.688 113.458L728.705 113.474L730.793 111.32ZM724.758 102.121L721.97 103.23L721.978 103.248L721.985 103.266L724.758 102.121ZM722.59 55.2461V52.2461H719.59V55.2461H722.59ZM738.527 55.2461H741.527V52.2461H738.527V55.2461ZM739.465 95.793L736.653 96.8392L736.668 96.8791L736.684 96.9185L739.465 95.793ZM742.102 99.9531L739.943 102.037L739.962 102.056L739.98 102.074L742.102 99.9531ZM745.91 102.414L744.848 105.22L744.861 105.225L744.873 105.229L745.91 102.414ZM755.285 102.121L756.656 104.79L756.669 104.783L756.682 104.776L755.285 102.121ZM761.73 94.8555L764.516 95.9696L764.521 95.9579L764.525 95.9461L761.73 94.8555ZM762.668 55.2461V52.2461H759.668V55.2461H762.668ZM778.781 55.2461H781.781V52.2461H778.781V55.2461ZM778.781 110.09L781.781 110.116L781.781 110.103V110.09H778.781ZM776.203 122.512L773.451 121.317L776.203 122.512ZM769.289 132.648L767.182 130.513L767.175 130.52L767.168 130.527L769.289 132.648ZM746.73 142.023L746.688 145.023L746.709 145.023H746.73V142.023ZM741.527 141.906V125.793H735.527V141.906H741.527ZM738.488 128.793L747.394 128.91L747.473 122.91L738.567 122.793L738.488 128.793ZM747.434 128.91C749.328 128.91 751.169 128.601 752.94 127.979L750.951 122.318C749.831 122.711 748.664 122.91 747.434 122.91V128.91ZM752.94 127.979C754.664 127.373 756.261 126.529 757.717 125.448L754.142 120.63C753.177 121.346 752.117 121.908 750.951 122.318L752.94 127.979ZM757.681 125.475C759.182 124.396 760.493 123.106 761.611 121.616L756.811 118.016C756.053 119.026 755.178 119.885 754.179 120.603L757.681 125.475ZM761.583 121.653C762.691 120.221 763.589 118.654 764.276 116.959L758.716 114.705C758.231 115.901 757.605 116.99 756.839 117.98L761.583 121.653ZM760.329 113.068C758.586 113.804 756.803 114.541 754.981 115.277L757.23 120.84C759.079 120.092 760.891 119.344 762.663 118.596L760.329 113.068ZM754.96 115.286C753.505 115.887 752.076 116.172 750.656 116.172V122.172C752.908 122.172 755.112 121.715 757.251 120.831L754.96 115.286ZM750.656 116.172C747.151 116.172 743.9 115.554 740.878 114.338L738.638 119.904C742.412 121.423 746.427 122.172 750.656 122.172V116.172ZM740.878 114.338C737.832 113.113 735.175 111.39 732.881 109.167L728.705 113.474C731.567 116.25 734.886 118.395 738.638 119.904L740.878 114.338ZM732.914 109.199C730.677 106.962 728.877 104.235 727.531 100.976L721.985 103.266C723.608 107.195 725.831 110.601 728.672 113.442L732.914 109.199ZM727.545 101.012C726.26 97.7807 725.59 94.102 725.59 89.9336H719.59C719.59 94.7496 720.365 99.1959 721.97 103.23L727.545 101.012ZM725.59 89.9336V55.2461H719.59V89.9336H725.59ZM722.59 58.2461H738.527V52.2461H722.59V58.2461ZM735.527 55.2461V89.9336H741.527V55.2461H735.527ZM735.527 89.9336C735.527 92.434 735.878 94.7546 736.653 96.8392L742.276 94.7468C741.802 93.4719 741.527 91.8863 741.527 89.9336H735.527ZM736.684 96.9185C737.474 98.8715 738.551 100.595 739.943 102.037L744.26 97.8693C743.464 97.0453 742.783 95.9957 742.246 94.6674L736.684 96.9185ZM739.98 102.074C741.374 103.469 743.005 104.522 744.848 105.22L746.972 99.6082C745.925 99.212 745.016 98.6251 744.223 97.8318L739.98 102.074ZM744.873 105.229C746.71 105.906 748.645 106.234 750.656 106.234V100.234C749.308 100.234 748.079 100.016 746.947 99.599L744.873 105.229ZM750.656 106.234C752.769 106.234 754.782 105.752 756.656 104.79L753.915 99.4524C752.898 99.9746 751.825 100.234 750.656 100.234V106.234ZM756.682 104.776C758.49 103.825 760.071 102.58 761.41 101.05L756.895 97.0987C756.046 98.0686 755.049 98.855 753.888 99.4663L756.682 104.776ZM761.41 101.05C762.73 99.5411 763.767 97.8428 764.516 95.9696L758.945 93.7413C758.444 94.9931 757.762 96.1073 756.895 97.0987L761.41 101.05ZM764.525 95.9461C765.283 94.0053 765.668 91.9953 765.668 89.9336H759.668C759.668 91.2313 759.428 92.5025 758.936 93.7648L764.525 95.9461ZM765.668 89.9336V55.2461H759.668V89.9336H765.668ZM762.668 58.2461H778.781V52.2461H762.668V58.2461ZM775.781 55.2461V110.09H781.781V55.2461H775.781ZM775.781 110.063C775.746 114.094 774.963 117.836 773.451 121.317L778.955 123.707C780.802 119.453 781.739 114.913 781.781 110.116L775.781 110.063ZM773.451 121.317C771.921 124.841 769.832 127.898 767.182 130.513L771.396 134.784C774.606 131.617 777.126 127.917 778.955 123.707L773.451 121.317ZM767.168 130.527C764.552 133.143 761.49 135.218 757.957 136.752L760.348 142.256C764.549 140.431 768.245 137.935 771.41 134.77L767.168 130.527ZM757.957 136.752C754.485 138.26 750.753 139.023 746.73 139.023V145.023C751.536 145.023 756.086 144.107 760.348 142.256L757.957 136.752ZM746.773 139.024L738.57 138.907L738.484 144.906L746.688 145.023L746.773 139.024Z" fill="#F8C645" fill-opacity="0.9" mask="url(#path-1-inside-1_64_2)"/>
<path d="M138.899 130.742H150.545L167.647 183H157.942L153.548 168.828H135.75L131.539 183H121.944L138.899 130.742ZM151.131 160.954L144.686 138.835H144.539L138.094 160.954H151.131ZM211.519 183.916C209.834 183.916 208.15 183.757 206.465 183.439C204.805 183.122 203.218 182.573 201.705 181.792C200.215 181.01 198.824 179.96 197.53 178.642C196.236 177.299 195.113 175.615 194.161 173.588C193.208 171.538 192.464 169.108 191.927 166.301C191.39 163.493 191.121 160.209 191.121 156.45C191.121 152.836 191.426 149.675 192.037 146.965C192.647 144.23 193.465 141.875 194.49 139.897C195.516 137.919 196.712 136.296 198.079 135.026C199.446 133.732 200.887 132.707 202.4 131.95C203.914 131.193 205.452 130.668 207.015 130.375C208.577 130.058 210.079 129.899 211.519 129.899C213.96 129.899 216.084 130.021 217.891 130.266C219.698 130.51 221.211 130.778 222.432 131.071C223.848 131.413 225.057 131.804 226.058 132.243V138.542C225.057 138.469 223.982 138.396 222.835 138.322C221.858 138.273 220.735 138.225 219.466 138.176C218.221 138.103 216.915 138.066 215.547 138.066C214.302 138.066 213.057 138.115 211.812 138.212C210.591 138.31 209.407 138.566 208.26 138.981C207.137 139.372 206.087 139.958 205.11 140.739C204.134 141.521 203.279 142.595 202.547 143.962C201.839 145.305 201.277 146.989 200.862 149.016C200.472 151.042 200.276 153.496 200.276 156.376C200.276 159.404 200.484 161.992 200.899 164.14C201.314 166.289 201.888 168.083 202.62 169.523C203.353 170.964 204.207 172.099 205.184 172.929C206.16 173.759 207.222 174.394 208.37 174.833C209.517 175.249 210.713 175.517 211.958 175.639C213.204 175.737 214.449 175.786 215.694 175.786C217.305 175.786 218.77 175.761 220.088 175.712C221.407 175.664 222.53 175.615 223.458 175.566C224.556 175.493 225.545 175.419 226.424 175.346V181.645C225.35 182.084 224.08 182.463 222.615 182.78C221.346 183.073 219.783 183.33 217.928 183.549C216.097 183.793 213.96 183.916 211.519 183.916ZM247.591 130.742H259.236L276.338 183H266.634L262.239 168.828H244.441L240.23 183H230.635L247.591 130.742ZM259.822 160.954L253.377 138.835H253.23L246.785 160.954H259.822ZM283.516 130.742H304.244C305.367 130.742 306.502 130.827 307.649 130.998C308.797 131.169 309.896 131.499 310.945 131.987C311.995 132.451 312.972 133.085 313.875 133.891C314.778 134.697 315.572 135.734 316.255 137.004C316.939 138.249 317.464 139.763 317.83 141.545C318.221 143.327 318.416 145.415 318.416 147.807C318.416 150.2 318.208 152.287 317.793 154.069C317.378 155.827 316.817 157.329 316.109 158.574C315.401 159.819 314.571 160.832 313.619 161.613C312.667 162.395 311.653 163.017 310.579 163.481C309.505 163.92 308.394 164.226 307.247 164.396C306.124 164.543 305.013 164.616 303.914 164.616H292.305V183H283.516V130.742ZM302.889 156.45C304.207 156.45 305.269 156.23 306.075 155.791C306.905 155.351 307.552 154.741 308.016 153.959C308.504 153.178 308.833 152.263 309.004 151.213C309.175 150.163 309.261 149.028 309.261 147.807C309.261 146.611 309.175 145.476 309.004 144.401C308.833 143.327 308.504 142.387 308.016 141.582C307.552 140.751 306.905 140.104 306.075 139.641C305.269 139.152 304.207 138.908 302.889 138.908H292.305V156.45H302.889ZM328.047 130.742H359.468V138.908H336.836V152.641H355.806V160.661H336.836V174.833H360.091V183H328.047V130.742ZM370.162 130.742H378.951V174.833H400.557V183H370.162V130.742ZM408.833 130.742H417.623V174.833H439.229V183H408.833V130.742ZM458.309 130.742H469.954L487.056 183H477.352L472.957 168.828H455.159L450.948 183H441.353L458.309 130.742ZM470.54 160.954L464.095 138.835H463.948L457.503 160.954H470.54Z" fill="#44AAE4" fill-opacity="0.9"/>
</svg>
